<?xml version="1.0" encoding="UTF-8"?>
<svg version="1.1" xmlns="http://www.w3.org/2000/svg" width="2972" height="1568">
<path d="M0 0 C980.76 0 1961.52 0 2972 0 C2972 517.44 2972 1034.88 2972 1568 C1991.24 1568 1010.48 1568 0 1568 C0 1050.56 0 533.12 0 0 Z " fill="#FEFEFE" transform="translate(0,0)"/>
<path d="M0 0 C3.44687487 0.17526482 4.79856206 0.57403135 7.6875 2.1875 C7.68988835 2.88048848 7.69227671 3.57347696 7.69473743 4.2874651 C7.75383432 21.13758599 7.82935005 37.98754475 7.92321491 54.83750629 C7.96820969 62.98597739 8.00761576 71.13440441 8.03393555 79.28295898 C8.05688592 86.38398425 8.09025052 93.4848705 8.13620156 100.58578557 C8.16017399 104.34683157 8.1788763 108.10773954 8.18511391 111.86886024 C8.19226658 116.06422237 8.22266611 120.25910309 8.25512695 124.4543457 C8.25369186 125.70590958 8.25225677 126.95747345 8.2507782 128.2469635 C8.26331635 129.38699829 8.27585449 130.52703308 8.28877258 131.70161438 C8.29338155 132.69438542 8.29799051 133.68715647 8.30273914 134.71001148 C8.75094172 137.59600346 9.51609422 138.33711292 11.6875 140.1875 C12.24394271 142.89333907 12.10537434 145.46273032 11.6875 148.1875 C10.5 149.9375 10.5 149.9375 8.6875 151.1875 C8.006875 151.909375 7.32625 152.63125 6.625 153.375 C2.45075753 155.95059642 -1.51738673 156.01915246 -6.3125 155.1875 C-7.32686017 154.44392132 -7.32686017 154.44392132 -8.36171246 153.68532085 C-12.58818908 151.53995975 -16.34783041 151.76410781 -21.02510071 151.78877258 C-22.0094254 151.78212576 -22.99375009 151.77547893 -24.0079028 151.76863068 C-27.30916569 151.74996484 -30.61006728 151.75260844 -33.91137695 151.75512695 C-36.27662164 151.74611201 -38.64186164 151.73578545 -41.00709534 151.72424316 C-47.43222644 151.6966158 -53.85726904 151.68738081 -60.28245187 151.68138909 C-66.31565719 151.67438997 -72.34881177 151.65084318 -78.38197651 151.62877061 C-90.33088687 151.58550181 -102.27979203 151.5555356 -114.22875977 151.53393555 C-125.8352311 151.51292613 -137.44165985 151.48565138 -149.0480957 151.44995117 C-150.12144368 151.44665293 -150.12144368 151.44665293 -151.21647546 151.44328807 C-154.80629972 151.43221842 -158.39612357 151.42102561 -161.98594725 151.40977156 C-191.7614355 151.31658512 -221.53692138 151.24743861 -251.3125 151.1875 C-250.9825 178.5775 -250.6525 205.9675 -250.3125 234.1875 C-249.6525 234.5175 -248.9925 234.8475 -248.3125 235.1875 C-248.14547544 239.53013862 -248.18250003 242.39710634 -250.3125 246.1875 C-250.98885085 246.18923625 -251.6652017 246.1909725 -252.36204803 246.19276136 C-292.41094702 246.29569612 -332.4598291 246.40378834 -372.50869583 246.51861694 C-377.31292602 246.53238721 -382.11715633 246.5461142 -386.92138672 246.55981445 C-387.87785882 246.56254276 -388.83433093 246.56527106 -389.81978704 246.56808204 C-405.32515964 246.61220729 -420.83053955 246.65282359 -436.33592497 246.69215261 C-452.23522034 246.73255853 -468.13450208 246.77671324 -484.03377736 246.82437855 C-493.85158207 246.85369281 -503.66938571 246.8800514 -513.48720814 246.90267897 C-520.21142731 246.91845615 -526.93562978 246.93786085 -533.65983044 246.96016841 C-537.54453854 246.97294725 -541.42923373 246.98407861 -545.31395721 246.99091911 C-549.51718465 246.99836205 -553.7203494 247.01341903 -557.92355347 247.02928162 C-559.16283124 247.03025972 -560.40210901 247.03123783 -561.67894065 247.03224558 C-562.79760934 247.03772002 -563.91627802 247.04319446 -565.06884575 247.0488348 C-566.52583266 247.05282186 -566.52583266 247.05282186 -568.01225364 247.05688947 C-570.34112586 247.03690063 -570.34112586 247.03690063 -572.3125 248.1875 C-574.37109375 248.4609375 -574.37109375 248.4609375 -576.75 248.5625 C-577.53246094 248.61148438 -578.31492187 248.66046875 -579.12109375 248.7109375 C-579.84425781 248.53820312 -580.56742188 248.36546875 -581.3125 248.1875 C-581.69277344 247.45144531 -582.07304688 246.71539063 -582.46484375 245.95703125 C-585.37790197 241.59052327 -589.6819578 240.43273794 -594.4375 238.5 C-595.95186646 237.86360596 -595.95186646 237.86360596 -597.49682617 237.21435547 C-600.76058981 235.85129989 -604.03439168 234.51566198 -607.3125 233.1875 C-608.42415527 232.73584473 -609.53581055 232.28418945 -610.68115234 231.81884766 C-616.85826951 229.31659932 -623.04657001 226.84397104 -629.24731445 224.40087891 C-633.60711743 222.67501504 -637.95889585 220.92894166 -642.3125 219.1875 C-642.3125 256.1475 -642.3125 293.1075 -642.3125 331.1875 C-646.6025 331.1875 -650.8925 331.1875 -655.3125 331.1875 C-655.6425 329.8675 -655.9725 328.5475 -656.3125 327.1875 C-658.48442544 325.86213375 -658.48442544 325.86213375 -661.23828125 324.96875 C-662.26373047 324.59363281 -663.28917969 324.21851563 -664.34570312 323.83203125 C-665.96895508 323.26548828 -665.96895508 323.26548828 -667.625 322.6875 C-668.66462891 322.30980469 -669.70425781 321.93210937 -670.77539062 321.54296875 C-677.08945953 319.26473682 -683.44532262 317.13822666 -689.84057617 315.09960938 C-692.3125 314.1875 -692.3125 314.1875 -695.3125 312.1875 C-697.31714433 311.49304397 -699.34115511 310.85360832 -701.375 310.25 C-702.53 309.90195312 -703.685 309.55390625 -704.875 309.1953125 C-706.99635568 308.57336959 -709.12081471 307.96177382 -711.25 307.3671875 C-712.11625 307.12226562 -712.9825 306.87734375 -713.875 306.625 C-714.63941406 306.41746094 -715.40382813 306.20992187 -716.19140625 305.99609375 C-718.3125 305.1875 -718.3125 305.1875 -720.09375 303.72265625 C-723.21635515 301.56212135 -726.59673276 300.97343534 -730.25 300.1875 C-735.12980018 299.13192452 -739.04397208 297.81841658 -743.3125 295.1875 C-745.91476346 294.28808755 -748.48609508 293.45707716 -751.125 292.6875 C-756.61506357 291.0588687 -761.9660674 289.23808346 -767.3125 287.1875 C-770.45565977 286.01360184 -773.60291544 284.85082908 -776.75 283.6875 C-777.54470703 283.39230469 -778.33941406 283.09710937 -779.15820312 282.79296875 C-783.86927041 281.05267213 -788.5937929 279.41695639 -793.38696289 277.91601562 C-795.3125 277.1875 -795.3125 277.1875 -798.3125 275.1875 C-800.15510397 274.74391016 -801.99822841 274.30238412 -803.84375 273.87109375 C-806.71444558 273.07620178 -809.41710446 272.03236591 -812.1875 270.9375 C-817.51149072 268.83755006 -822.87339647 266.96662465 -828.3125 265.1875 C-834.79346907 263.06391948 -841.16641394 260.76108606 -847.515625 258.265625 C-849.87167438 257.35742719 -852.22339694 256.52645813 -854.625 255.75 C-859.29447445 254.23557586 -863.86671037 252.47836979 -868.453125 250.73291016 C-875.57146014 248.04720802 -882.76656535 245.58762952 -889.97900391 243.16723633 C-896.62391729 240.89936169 -902.97022661 238.19748372 -909.3125 235.1875 C-909.6835236 225.66456098 -909.6835236 225.66456098 -908.0456543 223.55859375 C-905.35811487 221.43248846 -903.19666081 221.73781115 -899.87207031 221.85400391 C-895.22037294 222.46009114 -891.0284712 224.15743209 -886.6875 225.875 C-884.75329012 226.61247867 -882.81838988 227.34814919 -880.8828125 228.08203125 C-879.94083008 228.44248535 -878.99884766 228.80293945 -878.02832031 229.17431641 C-873.08143222 231.0198383 -868.05044645 232.59382964 -863.015625 234.1796875 C-860.3125 235.1875 -860.3125 235.1875 -858.3125 237.1875 C-856.39706689 237.87717183 -854.45387617 238.49074905 -852.5 239.0625 C-851.33339844 239.41054688 -850.16679688 239.75859375 -848.96484375 240.1171875 C-847.15693359 240.64699219 -847.15693359 240.64699219 -845.3125 241.1875 C-832.78332649 244.86500485 -832.78332649 244.86500485 -828.125 247.0625 C-823.03571991 249.44868261 -817.72644604 251.09273679 -812.39111328 252.83105469 C-806.53285318 254.75049284 -800.77318682 256.86331349 -795.01928711 259.07324219 C-790.82777093 260.66630243 -786.61681911 262.04448424 -782.3125 263.3125 C-778.74312996 264.36798243 -775.51842565 265.47149323 -772.25 267.25 C-768.12024779 269.48912725 -763.82483762 270.35151748 -759.2734375 271.40625 C-755.04112729 272.52295454 -751.23726673 274.27877555 -747.3125 276.1875 C-741.93585874 278.72365154 -736.66668665 280.15777473 -730.88671875 281.44140625 C-728.3125 282.1875 -728.3125 282.1875 -726.3125 284.1875 C-724.42328005 284.97942736 -724.42328005 284.97942736 -722.25 285.625 C-721.44433594 285.88152344 -720.63867188 286.13804687 -719.80859375 286.40234375 C-718.57302734 286.79099609 -718.57302734 286.79099609 -717.3125 287.1875 C-715.06950763 287.93003435 -712.82971955 288.6817198 -710.58984375 289.43359375 C-709.00274373 289.95899736 -707.41117629 290.47101497 -705.81640625 290.97265625 C-705.01074219 291.22917969 -704.20507812 291.48570312 -703.375 291.75 C-702.27865234 292.09224609 -702.27865234 292.09224609 -701.16015625 292.44140625 C-699.3125 293.1875 -699.3125 293.1875 -697.3125 295.1875 C-695.16529796 295.91608015 -695.16529796 295.91608015 -692.625 296.5 C-682.90470919 299.02906384 -673.21062863 302.02745388 -664.14453125 306.390625 C-662.00537753 307.38083884 -662.00537753 307.38083884 -658.3125 308.1875 C-658.3125 275.8475 -658.3125 243.5075 -658.3125 210.1875 C-660.6225 210.1875 -662.9325 210.1875 -665.3125 210.1875 C-667.9375 209.19921875 -667.9375 209.19921875 -670.3125 207.875 C-671.16328125 207.41867187 -672.0140625 206.96234375 -672.890625 206.4921875 C-674.08945313 205.84636719 -674.08945313 205.84636719 -675.3125 205.1875 C-678.49862411 203.69478831 -681.70639171 202.38035264 -685.0625 201.3125 C-687.90714216 200.32781618 -690.52333214 199.20215836 -693.25 197.9375 C-699.02636074 195.26296585 -704.90376008 192.9285261 -710.83203125 190.6171875 C-714.3125 189.1875 -714.3125 189.1875 -717.26171875 187.6953125 C-720.86386808 185.91499286 -724.53715195 184.55003163 -728.3125 183.1875 C-732.05771248 181.83584437 -735.69974612 180.49712762 -739.2578125 178.69921875 C-743.1298265 176.78301745 -747.10628607 175.40075563 -751.1875 174 C-751.97125 173.72736328 -752.755 173.45472656 -753.5625 173.17382812 C-755.47791442 172.50810482 -757.39503562 171.84729565 -759.3125 171.1875 C-759.3125 170.5275 -759.3125 169.8675 -759.3125 169.1875 C-760.06015625 168.99414062 -760.8078125 168.80078125 -761.578125 168.6015625 C-762.56296875 168.34117187 -763.5478125 168.08078125 -764.5625 167.8125 C-765.53703125 167.55726563 -766.5115625 167.30203125 -767.515625 167.0390625 C-770.3125 166.1875 -770.3125 166.1875 -772.44140625 165.10546875 C-774.52011882 163.94516624 -774.52011882 163.94516624 -778 163.875 C-782.40047978 163.43331616 -785.42627552 161.6157912 -789.17578125 159.375 C-792.0824421 157.75959799 -795.11527411 157.09338067 -798.3125 156.1875 C-801.29914048 154.88432302 -804.23633727 153.48761382 -807.18359375 152.09765625 C-812.36977168 149.67323948 -817.6237233 147.4040229 -822.875 145.125 C-823.87571533 144.69058594 -824.87643066 144.25617188 -825.9074707 143.80859375 C-831.95144718 141.19217962 -838.00692957 138.61196051 -844.10546875 136.125 C-846.22262757 135.2256759 -848.26795911 134.24032106 -850.3125 133.1875 C-850.3125 132.5275 -850.3125 131.8675 -850.3125 131.1875 C-851.18390625 131.24679687 -852.0553125 131.30609375 -852.953125 131.3671875 C-856.77215867 131.16291361 -858.7727276 130.21184373 -862.0625 128.3125 C-863.00609375 127.77882813 -863.9496875 127.24515625 -864.921875 126.6953125 C-867.3125 125.1875 -867.3125 125.1875 -869.3125 123.1875 C-869.87262391 119.80317236 -869.84412016 116.57452332 -869.3125 113.1875 C-865.04337594 108.1650011 -859.29777799 107.21709879 -853 106.625 C-852.13761719 106.56183594 -851.27523438 106.49867188 -850.38671875 106.43359375 C-848.32460284 106.40589359 -848.32460284 106.40589359 -847.3125 105.1875 C-844.71430914 105.08527353 -842.1425498 105.04863426 -839.54373169 105.05378723 C-838.72011639 105.05152167 -837.89650108 105.04925612 -837.04792774 105.04692191 C-834.26647564 105.04055217 -831.4850719 105.04141317 -828.70361328 105.04223633 C-826.71821021 105.03924667 -824.73280772 105.0358446 -822.74740601 105.03205872 C-817.33834229 105.02319441 -811.92929437 105.02087957 -806.52022409 105.02024293 C-802.01206954 105.01929579 -797.5039187 105.01561971 -792.99576557 105.01207083 C-782.36322332 105.00391689 -771.73068954 105.00148744 -761.09814453 105.00219727 C-750.1140269 105.00279818 -739.12995836 104.9922458 -728.14585316 104.9764536 C-718.73015044 104.96339654 -709.3144638 104.9580126 -699.89875209 104.95865268 C-694.26871765 104.95890822 -688.63872679 104.95602602 -683.00870132 104.94547462 C-677.7146471 104.93582453 -672.42067841 104.93569314 -667.12662125 104.94299126 C-665.17991003 104.94404099 -663.23319358 104.94165135 -661.28649139 104.9356308 C-658.63597078 104.92796249 -655.98574934 104.93252122 -653.3352356 104.94026184 C-652.55868468 104.93511828 -651.78213377 104.92997471 -650.98205101 104.92467529 C-647.21242747 104.94912616 -645.53033402 105.04227732 -642.3125 107.1875 C-641.99663409 110.20502215 -641.87515221 113.02143286 -641.88012695 116.04345703 C-641.8699353 116.96058472 -641.85974365 117.8777124 -641.84924316 118.82263184 C-641.81897299 121.8635864 -641.80982586 124.90422672 -641.80078125 127.9453125 C-641.78394496 130.04996804 -641.76579616 132.15461347 -641.74638367 134.25924683 C-641.69876357 139.80601845 -641.66903197 145.35274907 -641.64294434 150.8996582 C-641.61319927 156.55688582 -641.56664827 162.21397193 -641.52148438 167.87109375 C-641.43531468 178.97648866 -641.36803032 190.0819126 -641.3125 201.1875 C-640.40886719 201.52523437 -639.50523437 201.86296875 -638.57421875 202.2109375 C-636.80498047 202.87996094 -636.80498047 202.87996094 -635 203.5625 C-633.24236328 204.22378906 -633.24236328 204.22378906 -631.44921875 204.8984375 C-628.3125 206.1875 -628.3125 206.1875 -625.3125 208.1875 C-623.97266286 208.68617149 -622.61608659 209.14102138 -621.25 209.5625 C-613.75045503 211.97698765 -606.54692644 215.08278183 -599.3125 218.1875 C-598.06383249 218.72272719 -596.8151348 219.25788398 -595.56640625 219.79296875 C-592.1484375 221.2578125 -588.73046875 222.72265625 -585.3125 224.1875 C-585.31388269 223.20709669 -585.31388269 223.20709669 -585.31529331 222.20688725 C-585.33734842 206.32562049 -585.35391149 190.44435904 -585.36431217 174.56308079 C-585.36947515 166.88311273 -585.37651789 159.20315487 -585.38793945 151.52319336 C-585.39788623 144.83172011 -585.40435341 138.14025424 -585.40658849 131.4487738 C-585.40789561 127.90354399 -585.41098153 124.35833532 -585.41823006 120.81311226 C-585.4262438 116.86181355 -585.42649114 112.9105358 -585.42602539 108.95922852 C-585.42962067 107.77528 -585.43321594 106.59133148 -585.43692017 105.37150574 C-585.4355455 104.30153351 -585.43417084 103.23156128 -585.43275452 102.12916565 C-585.43413721 100.72573583 -585.43413721 100.72573583 -585.43554783 99.2939539 C-585.3125 97.1875 -585.3125 97.1875 -584.3125 96.1875 C-582.33736333 96.03623769 -580.35571865 95.96576234 -578.375 95.9375 C-577.29347656 95.91171875 -576.21195313 95.8859375 -575.09765625 95.859375 C-574.17855469 95.96765625 -573.25945312 96.0759375 -572.3125 96.1875 C-547.52968268 133.36172598 -569.3125 185.50964071 -569.3125 230.1875 C-469.6525 230.1875 -369.9925 230.1875 -267.3125 230.1875 C-267.3125 204.1175 -267.3125 178.0475 -267.3125 151.1875 C-283.50248047 151.27451172 -283.50248047 151.27451172 -300.01953125 151.36328125 C-306.84180282 151.38881741 -313.66403991 151.41309282 -320.48632812 151.43164062 C-331.32409454 151.46134141 -342.16166701 151.49630956 -352.99926758 151.56469727 C-360.8912769 151.61447396 -368.78312931 151.6467771 -376.67529124 151.65794247 C-380.85569884 151.66447105 -385.03565746 151.67985401 -389.2159214 151.71615028 C-393.14843543 151.75001964 -397.08031441 151.76057162 -401.01296043 151.75303841 C-402.45819929 151.75441705 -403.90345879 151.76440417 -405.34857178 151.78352737 C-407.31794475 151.80831572 -409.28765641 151.79946323 -411.25715637 151.78877258 C-412.91223567 151.79568603 -412.91223567 151.79568603 -414.60075092 151.80273914 C-417.3125 151.1875 -417.3125 151.1875 -419.19486523 148.81007671 C-420.54556803 145.64059613 -420.54302542 144.3868661 -419.3125 141.1875 C-416.48669564 137.5375027 -412.57816644 135.32063549 -408.75390625 132.83203125 C-403.92599216 129.57994832 -399.43064991 125.88817933 -394.89453125 122.24609375 C-386.50058982 115.55379854 -377.9066276 109.11898449 -369.3125 102.6875 C-361.59787268 96.914121 -353.93182626 91.08601237 -346.3125 85.1875 C-339.43180518 79.86746403 -332.52761433 74.58420315 -325.5625 69.375 C-313.93727363 60.67748366 -302.39988859 51.87025207 -291.00537109 42.87231445 C-287.37285355 40.0070877 -283.69942295 37.20858159 -279.98046875 34.45703125 C-278.31335396 33.18814997 -276.71803017 31.86029528 -275.125 30.5 C-272.3125 28.1875 -272.3125 28.1875 -269.75 26.875 C-266.62976573 24.71483781 -265.26535317 22.20136915 -263.42578125 18.9296875 C-262.3125 17.1875 -262.3125 17.1875 -260.3125 16.1875 C-252.84583333 15.83194444 -252.84583333 15.83194444 -249.3125 18.1875 C-248.9405632 20.18718529 -248.9405632 20.18718529 -248.94500732 22.69100952 C-248.93943817 23.63877762 -248.93386902 24.58654572 -248.9281311 25.56303406 C-248.93734589 26.60619278 -248.94656067 27.6493515 -248.95605469 28.72412109 C-248.95401031 29.82014145 -248.95196594 30.9161618 -248.94985962 32.0453949 C-248.94684103 35.68407644 -248.96536357 39.32230948 -248.984375 42.9609375 C-248.98743125 45.48198331 -248.98930839 48.00303081 -248.99005127 50.52407837 C-248.99466137 55.81527593 -249.00872369 61.10631895 -249.03125 66.39746094 C-249.06009189 73.18581973 -249.07047033 79.974074 -249.0749321 86.76248741 C-249.07848772 91.97143589 -249.08890513 97.18036565 -249.10080719 102.3893013 C-249.10651222 104.89238922 -249.11127016 107.39547948 -249.11507416 109.89857101 C-249.12193841 113.39645244 -249.13557264 116.89423877 -249.15136719 120.39208984 C-249.15248505 121.4312001 -249.15360291 122.47031036 -249.15475464 123.54090881 C-249.16046478 124.49431656 -249.16617493 125.4477243 -249.17205811 126.43002319 C-249.17503277 127.25703924 -249.17800743 128.08405529 -249.18107224 128.93613243 C-249.3125 131.1875 -249.3125 131.1875 -250.3125 135.1875 C-180.0225 134.8575 -109.7325 134.5275 -37.3125 134.1875 C-41.2725 131.5475 -45.2325 128.9075 -49.3125 126.1875 C-51.55185272 124.59758362 -53.78297135 122.99590058 -56 121.375 C-62.53624649 116.64889041 -69.27396174 112.27439018 -76.0625 107.921875 C-84.33810023 102.61371171 -92.53457256 97.17644003 -100.5625 91.5 C-103.85980746 89.16961301 -107.20684976 86.96175418 -110.625 84.8125 C-115.23617565 81.90868813 -119.72436722 78.85918133 -124.19018555 75.73706055 C-128.39781733 72.80192049 -132.65754698 69.95338707 -136.9375 67.125 C-141.26542614 64.26194404 -145.51957082 61.34437166 -149.6875 58.25 C-154.9423885 54.37139182 -160.39903622 50.8562745 -165.89599609 47.33544922 C-171.49527715 43.74117271 -176.97886556 40.01176494 -182.42578125 36.19140625 C-185.76802865 33.87128052 -189.17028156 31.65621745 -192.60546875 29.4765625 C-194.3125 28.1875 -194.3125 28.1875 -196.3125 25.1875 C-196.63155781 20.80045513 -196.42925545 18.00941956 -194.3125 14.1875 C-192.93936409 14.07764913 -191.56355487 14.00108009 -190.1875 13.9375 C-189.42179687 13.89109375 -188.65609375 13.8446875 -187.8671875 13.796875 C-184.28344857 14.34484731 -182.23274414 16.06567467 -179.3125 18.1875 C-178.20289033 18.93516557 -177.08947961 19.67721583 -175.97265625 20.4140625 C-175.39185303 20.80134521 -174.8110498 21.18862793 -174.21264648 21.58764648 C-172.95073756 22.42875145 -171.68851348 23.26938374 -170.42602539 24.10961914 C-167.01377287 26.38155575 -163.60717034 28.66120383 -160.2109375 30.95703125 C-159.54698975 31.4041748 -158.88304199 31.85131836 -158.19897461 32.31201172 C-156.93483363 33.1636402 -155.67250885 34.01797325 -154.41235352 34.87548828 C-151.73057313 36.67822205 -149.11718882 38.27965559 -146.19140625 39.66015625 C-142.90272248 41.40489893 -140.91439493 43.5381541 -138.3125 46.1875 C-136.01239263 47.92958494 -133.60978518 49.49634066 -131.1875 51.0625 C-130.52733887 51.49594727 -129.86717773 51.92939453 -129.18701172 52.37597656 C-124.4176465 55.49854133 -119.61139611 58.56316095 -114.79296875 61.609375 C-109.26726759 65.1249392 -103.85533333 68.79330043 -98.5 72.5625 C-92.27738716 76.93747549 -85.93935406 81.13571729 -79.58984375 85.32373047 C-71.29827772 90.79297498 -63.11398007 96.38594384 -55.03442383 102.16503906 C-52.17179672 104.20600835 -49.37067796 106.1540059 -46.3203125 107.91015625 C-45.32644531 108.54244141 -45.32644531 108.54244141 -44.3125 109.1875 C-44.3125 109.8475 -44.3125 110.5075 -44.3125 111.1875 C-43.52875 111.373125 -42.745 111.55875 -41.9375 111.75 C-37.71446167 113.42465313 -34.49118421 115.73655216 -30.828125 118.390625 C-28.65618956 119.94200746 -26.46831741 121.3671422 -24.1875 122.75 C-20.64368962 124.90928527 -17.40810483 127.358792 -14.171875 129.953125 C-12.19853746 131.2631558 -10.60246061 131.67347566 -8.3125 132.1875 C-8.31803076 131.22947133 -8.31803076 131.22947133 -8.32367325 130.25208855 C-8.41205646 114.70290769 -8.47822513 99.15381435 -8.51974869 83.6044445 C-8.54036354 76.08483731 -8.56846332 68.56539792 -8.61425781 61.04589844 C-8.65415883 54.49098126 -8.67994065 47.93618562 -8.68885398 41.38115036 C-8.69406329 37.91107073 -8.70628394 34.44133877 -8.73542023 30.9713707 C-8.76770193 27.09526868 -8.7684573 23.21950507 -8.76660156 19.34326172 C-8.78098267 18.19599106 -8.79536377 17.0487204 -8.81018066 15.86668396 C-8.77551075 9.18310534 -8.30139116 0.46989007 0 0 Z " fill="#070707" transform="translate(1935.3125,367.8125)"/>
<path d="M0 0 C0.76723389 0.20802246 1.53446777 0.41604492 2.32495117 0.63037109 C8.6173068 2.36640397 14.11869512 4.82531997 19.8125 8 C20.67762207 8.47840332 21.54274414 8.95680664 22.43408203 9.44970703 C30.13029642 13.83547534 36.49446428 19.01639837 43 25 C44.04192506 25.85731727 45.08753127 26.71017972 46.13671875 27.55859375 C50.10094881 30.93873534 52.93640917 34.81443621 56 39 C56.5671875 39.75152344 57.134375 40.50304687 57.71875 41.27734375 C75.00603574 64.8902045 82.11619416 92.94537961 78.22680664 121.94580078 C74.60067132 145.0514042 64.00178303 165.10682797 48 182 C47.13117188 182.93714844 46.26234375 183.87429688 45.3671875 184.83984375 C40.06378667 190.36768317 34.44142704 194.8610405 28 199 C32.48026167 198.57733381 36.39054433 197.89750443 40.65625 196.46875 C48.72697485 194.22294197 56.88587904 194.67845331 65.1875 194.8125 C66.82355533 194.82758109 68.45962417 194.84126341 70.09570312 194.85351562 C74.0644175 194.88365776 78.03121481 194.94241956 82 195 C82 200.94 82 206.88 82 213 C79.28523438 213.01981934 76.57046875 213.03963867 73.7734375 213.06005859 C64.78878181 213.12706226 55.80424046 213.20470035 46.81971741 213.28752708 C41.37414074 213.33740398 35.92858267 213.38373474 30.48291016 213.421875 C25.22436854 213.45883655 19.96598578 213.5052259 14.70758057 213.55806351 C12.70463863 213.57654977 10.70166271 213.59167886 8.69866943 213.60334396 C5.8861882 213.62030536 3.07406623 213.64936387 0.26171875 213.68115234 C-0.97151375 213.68439262 -0.97151375 213.68439262 -2.22966003 213.68769836 C-7.46645582 213.76296807 -11.9503226 214.61214143 -17 216 C-21.66349537 216.38622146 -26.32177606 216.33355411 -31 216.3125 C-32.29566895 216.30686035 -33.59133789 216.3012207 -34.92626953 216.29541016 C-65.63798553 215.90645927 -91.1545427 202.70829968 -112.68359375 181.3359375 C-121.6912938 171.76620557 -127.51677263 160.50972854 -133.15136719 148.76660156 C-133.85329776 147.30539051 -134.56934029 145.85096778 -135.2890625 144.3984375 C-144.47027224 125.1249056 -145.28736151 98.24223706 -139 78 C-138.68289063 76.8346875 -138.36578125 75.669375 -138.0390625 74.46875 C-133.89833555 60.4901257 -126.65250302 46.96095343 -117 36 C-116.33742188 35.20722656 -115.67484375 34.41445313 -114.9921875 33.59765625 C-109.3117687 26.99086091 -103.02988116 21.15451505 -96 16 C-95.34 16 -94.68 16 -94 16 C-94 15.34 -94 14.68 -94 14 C-90.73551599 12.23796964 -87.46232283 10.49272901 -84.1875 8.75 C-83.27806641 8.25886719 -82.36863281 7.76773438 -81.43164062 7.26171875 C-56.70524494 -5.84414469 -26.7556931 -8.58363974 0 0 Z M-89.88671875 39.95703125 C-92 42 -92 42 -94.4921875 43.91015625 C-99.19605826 47.83004855 -102.4957308 53.02319215 -106 58 C-106.56203125 58.79535156 -107.1240625 59.59070313 -107.703125 60.41015625 C-120.04781874 79.34951534 -122.35025947 103.0696442 -118.45410156 124.9296875 C-115.22966709 139.630335 -107.64629092 152.64376926 -98 164 C-97.22914062 164.97453125 -96.45828125 165.9490625 -95.6640625 166.953125 C-81.12594478 184.36952988 -59.22731383 192.5157229 -37.2565918 194.73974609 C-13.61567753 196.42579475 8.4194789 187.59565985 26.29296875 172.49609375 C41.95841266 158.05133378 54.64155182 138.69057863 56.22265625 116.93652344 C57.1870452 89.50963425 52.47471009 67.10301104 33.34106445 46.54394531 C22.6715471 35.204632 10.82284783 27.05547459 -4 22 C-4.81984375 21.71382812 -5.6396875 21.42765625 -6.484375 21.1328125 C-34.57982022 11.97125428 -68.760707 19.35635549 -89.88671875 39.95703125 Z " fill="#050505" transform="translate(1462,761)"/>
<path d="M0 0 C0.721875 0.63292969 1.44375 1.26585937 2.1875 1.91796875 C2.8475 2.45808594 3.5075 2.99820313 4.1875 3.5546875 C15.26961096 12.78233231 23.43828891 23.25346352 30.1875 35.91796875 C30.51234375 36.5197998 30.8371875 37.12163086 31.171875 37.74169922 C33.4471746 42.0323641 35.41749709 46.395861 37.1875 50.91796875 C37.4457959 51.57587402 37.7040918 52.2337793 37.97021484 52.91162109 C42.04663112 63.89987999 42.63710639 74.81589761 42.625 86.41796875 C42.62531219 87.10406219 42.62562439 87.79015564 42.62594604 88.49703979 C42.52623787 117.34809528 31.05472295 143.12473117 11.1875 163.91796875 C10.3934375 164.7790625 9.599375 165.64015625 8.78125 166.52734375 C3.76023711 171.79587136 -1.71588519 175.95962385 -7.8125 179.91796875 C-5.93652711 179.63262659 -4.0617552 179.33938381 -2.1875 179.04296875 C-0.62128906 178.79933594 -0.62128906 178.79933594 0.9765625 178.55078125 C4.14647969 178.02147228 4.14647969 178.02147228 6.859375 176.890625 C10.84212597 175.72665201 14.54169555 175.6666182 18.6484375 175.72265625 C19.8342894 175.72690109 19.8342894 175.72690109 21.0440979 175.73123169 C23.55039084 175.7423592 26.05631645 175.76744949 28.5625 175.79296875 C30.26952606 175.80300817 31.97655777 175.81213234 33.68359375 175.8203125 C37.85181528 175.84056625 42.01925012 175.87972793 46.1875 175.91796875 C45.8575 181.85796875 45.5275 187.79796875 45.1875 193.91796875 C42.45702393 193.93778809 39.72654785 193.95760742 36.91333008 193.97802734 C27.89273059 194.04492838 18.87224657 194.12256808 9.85178089 194.20549583 C4.38257701 194.25544573 -1.08660768 194.30177603 -6.5559082 194.33984375 C-11.83388879 194.37671285 -17.11170831 194.4230775 -22.38955116 194.47603226 C-24.40334562 194.49456751 -26.41717459 194.50967868 -28.43102074 194.52131271 C-31.25130082 194.53818985 -34.07121271 194.56722877 -36.89135742 194.59912109 C-37.72429825 194.60128128 -38.55723907 194.60344147 -39.41542053 194.60566711 C-43.71265549 194.667762 -46.85349667 195.08451498 -50.8125 196.91796875 C-55.37650396 197.28941521 -59.94274524 197.24722726 -64.51977539 197.23364258 C-66.71227656 197.23052243 -68.90337249 197.25381904 -71.09570312 197.27929688 C-90.46382049 197.36721426 -107.37990001 192.10572492 -123.8125 181.91796875 C-124.94171875 181.30179688 -126.0709375 180.685625 -127.234375 180.05078125 C-131.05467695 177.87734975 -134.31748587 175.23616162 -137.625 172.35546875 C-138.23174561 171.82808105 -138.83849121 171.30069336 -139.46362305 170.75732422 C-160.0730852 152.561779 -175.79741804 126.06026274 -178.11767578 98.26171875 C-178.2483053 94.55839674 -178.28003386 90.87342634 -178.25 87.16796875 C-178.24315186 85.85973145 -178.23630371 84.55149414 -178.22924805 83.20361328 C-177.98619665 68.47670146 -175.45097458 55.17864714 -168.8125 41.91796875 C-168.30589844 40.90500732 -168.30589844 40.90500732 -167.7890625 39.87158203 C-162.27624366 29.01465561 -155.9678459 19.92011574 -147.8125 10.91796875 C-147.16539063 10.07363281 -146.51828125 9.22929688 -145.8515625 8.359375 C-132.58719161 -7.52229513 -105.52697343 -20.54336116 -85.33789062 -22.88354492 C-54.53155652 -25.30480842 -24.19141556 -20.57066093 0 0 Z M-132.8671875 26.90625 C-140.44929683 35.06487917 -146.95327252 45.50199253 -150.8125 55.91796875 C-151.22242188 56.98724609 -151.22242188 56.98724609 -151.640625 58.078125 C-158.82250836 78.0395361 -157.68839815 103.66850038 -148.85986328 123.00439453 C-138.74627812 143.98973912 -121.52947553 161.98745402 -99.28637695 170.08056641 C-76.38698015 177.86677081 -51.83903539 176.81075112 -29.8125 166.91796875 C-24.95447081 164.51726435 -20.32042226 161.92325026 -15.8125 158.91796875 C-15.8125 158.25796875 -15.8125 157.59796875 -15.8125 156.91796875 C-15.23757812 156.65628906 -14.66265625 156.39460937 -14.0703125 156.125 C1.06240552 148.03501753 11.63757411 129.07242593 17.109375 113.60546875 C19.63686129 104.96073302 20.50602864 96.91806312 20.4375 87.91796875 C20.44523437 86.9021875 20.45296875 85.88640625 20.4609375 84.83984375 C20.44414569 78.29103915 19.71769993 72.27890934 18.1875 65.91796875 C17.92710937 64.7475 17.66671875 63.57703125 17.3984375 62.37109375 C11.19891892 38.6159291 -6.24589903 20.3225675 -26.92456055 7.92675781 C-62.67536262 -12.08744265 -105.08196848 0.01903235 -132.8671875 26.90625 Z " fill="#050505" transform="translate(2095.8125,780.08203125)"/>
<path d="M0 0 C0.66 0 1.32 0 2 0 C2.36125977 0.90838623 2.72251953 1.81677246 3.09472656 2.75268555 C9.85251691 19.73608896 16.65681361 36.69581849 23.67333984 53.57421875 C26.93993299 61.43225628 30.17193956 69.30335797 33.375 77.1875 C37.51143336 87.36677521 41.68526374 97.53009459 45.875 107.6875 C50.50953784 118.92525978 55.11706044 130.17351404 59.6875 141.4375 C59.95656158 142.10056152 60.22562317 142.76362305 60.50283813 143.44677734 C61.82941683 146.7163188 63.15553337 149.98604748 64.48144531 153.25585938 C71.68087842 171.00873356 78.93803142 188.73653239 86.2734375 206.43359375 C86.72428711 207.52526855 87.17513672 208.61694336 87.63964844 209.74169922 C88.56502199 211.95814491 89.50642276 214.16795228 90.46191406 216.37158203 C91.14979004 217.96848877 91.14979004 217.96848877 91.8515625 219.59765625 C92.26486816 220.54261963 92.67817383 221.48758301 93.10400391 222.46118164 C94 225 94 225 94 229 C86.41 229 78.82 229 71 229 C66.5103947 221.14319072 66.5103947 221.14319072 65.5 217.99609375 C60.33246954 202.29164572 54.18784847 187.46962117 48 172 C16.65 171.67 -14.7 171.34 -47 171 C-47.99 174.3 -48.98 177.6 -50 181 C-50.8903699 183.40921766 -51.81401963 185.80651387 -52.77734375 188.1875 C-53.15627525 189.12952271 -53.15627525 189.12952271 -53.54286194 190.09057617 C-54.33696018 192.06207549 -55.13704641 194.03107378 -55.9375 196 C-56.46850809 197.31493902 -56.99910924 198.63004246 -57.52929688 199.9453125 C-58.55271249 202.48250801 -59.57787157 205.01898487 -60.60498047 207.5546875 C-61.80340197 210.51445724 -63.00050848 213.47469585 -64.19140625 216.4375 C-64.47314697 217.13746094 -64.7548877 217.83742188 -65.04516602 218.55859375 C-66.40075976 222.02469894 -67.69320178 225.51520474 -69 229 C-76.92 229 -84.84 229 -93 229 C-92.28613397 225.43066985 -91.64626198 222.818407 -90.30444336 219.55322266 C-89.95511749 218.69693268 -89.60579163 217.8406427 -89.24588013 216.95840454 C-88.67364212 215.57520523 -88.67364212 215.57520523 -88.08984375 214.1640625 C-87.6909494 213.18980316 -87.29205505 212.21554382 -86.881073 211.21176147 C-85.57078547 208.01441745 -84.25419187 204.81971137 -82.9375 201.625 C-82.02198127 199.3946947 -81.10686479 197.16422424 -80.19213867 194.93359375 C-78.34041844 190.41992253 -76.48623056 185.90727779 -74.62988281 181.39550781 C-72.31730212 175.77403869 -70.01212179 170.1495798 -67.7109375 164.5234375 C-60.05636091 145.8161956 -52.34112974 127.1345356 -44.58129883 108.47070312 C-40.7165741 99.19546947 -40.7165741 99.19546947 -36.953125 89.87890625 C-34.38542367 83.4061012 -31.66397971 76.99624429 -28.97317505 70.57394409 C-23.22377076 56.84435438 -17.58995773 43.07581425 -12.09472656 29.24267578 C-8.1943845 19.43813387 -4.15354183 9.69974181 0 0 Z " fill="#060606" transform="translate(1021,745)"/>
<path d="M0 0 C7.59 0 15.18 0 23 0 C23 32.01 23 64.02 23 97 C55.01 97 87.02 97 120 97 C120 65.32 120 33.64 120 1 C127.26 1 134.52 1 142 1 C142 71.95 142 142.9 142 216 C134.74 216 127.48 216 120 216 C120 183.99 120 151.98 120 119 C87.66 119 55.32 119 22 119 C22 150.68 22 182.36 22 215 C14.74 215 7.48 215 0 215 C0 144.05 0 73.1 0 0 Z " fill="#050505" transform="translate(1141,759)"/>
<path d="M0 0 C42.24 0 84.48 0 128 0 C128 6.93 128 13.86 128 21 C93.35 21 58.7 21 23 21 C23 46.08 23 71.16 23 97 C56.66 97 90.32 97 125 97 C125 103.93 125 110.86 125 118 C91.34 118 57.68 118 23 118 C23 143.08 23 168.16 23 194 C57.65 194.33 92.3 194.66 128 195 C128 201.93 128 208.86 128 216 C85.76 216 43.52 216 0 216 C0 144.72 0 73.44 0 0 Z " fill="#070707" transform="translate(1754,759)"/>
<path d="M0 0 C42.24 0 84.48 0 128 0 C128 6.93 128 13.86 128 21 C93.02 21 58.04 21 22 21 C22 46.08 22 71.16 22 97 C55.66 97 89.32 97 124 97 C124 103.93 124 110.86 124 118 C90.34 118 56.68 118 22 118 C22 143.41 22 168.82 22 195 C56.65 195 91.3 195 127 195 C127 201.6 127 208.2 127 215 C85.09 215 43.18 215 0 215 C0 144.05 0 73.1 0 0 Z " fill="#040405" transform="translate(1579,759)"/>
<path d="M0 0 C41.58 0 83.16 0 126 0 C126 6.6 126 13.2 126 20 C108.84 20 91.68 20 74 20 C74 84.35 74 148.7 74 215 C66.74 215 59.48 215 52 215 C52 150.65 52 86.3 52 20 C34.84 20 17.68 20 0 20 C0 13.4 0 6.8 0 0 Z " fill="#020203" transform="translate(819,759)"/>
<path d="M0 0 C58.08 0 116.16 0 176 0 C176 24.09 176 48.18 176 73 C172.91473684 72.22868421 170.27775867 71.37846136 167.35839844 70.18994141 C166.03721008 69.6532785 166.03721008 69.6532785 164.68933105 69.10577393 C160.54369907 67.40121184 156.40213737 65.6875173 152.265625 63.9609375 C150.45706621 63.20824932 148.64847141 62.45564766 146.83984375 61.703125 C144.03297623 60.53445908 141.22638401 59.36514608 138.42041016 58.19433594 C135.68209939 57.05214265 132.94269945 55.91259584 130.203125 54.7734375 C128.95139496 54.24996231 128.95139496 54.24996231 127.67437744 53.71591187 C123.49190045 51.97901187 119.32377746 50.36260808 115 49 C115 48.34 115 47.68 115 47 C113.80375 46.79375 112.6075 46.5875 111.375 46.375 C104.48841976 44.85929334 95.0497979 42.0497979 90 37 C88.88625 36.855625 87.7725 36.71125 86.625 36.5625 C82.83602664 35.97455586 81.89730196 35.26351716 79 33 C76.67126625 32.31744011 74.33817209 31.64949225 72 31 C71.01 30.01 71.01 30.01 70 29 C68.538949 28.50535847 67.05508567 28.07676634 65.5625 27.6875 C60.85890988 26.34074556 56.60025802 24.5319202 52.1796875 22.453125 C47.62497208 20.37160886 42.99416092 18.48940104 38.35620117 16.60229492 C33.03693327 14.43730345 27.76429055 12.17956337 22.515625 9.84765625 C20.03502103 8.85270567 20.03502103 8.85270567 17.421875 9.05859375 C14.32335355 8.98362952 13.38704947 7.90872849 11 6 C9.10768924 5.20977526 7.18841364 4.48171423 5.25 3.8125 C3.77273438 3.29623047 3.77273438 3.29623047 2.265625 2.76953125 C1.51796875 2.51558594 0.7703125 2.26164062 0 2 C0 1.34 0 0.68 0 0 Z " fill="#FAF9FA" transform="translate(1101,489)"/>
<path d="M0 0 C0.04634426 10.996252 0.08187988 21.99248076 0.10362434 32.98881054 C0.11406068 38.09487038 0.12821724 43.20086339 0.15087891 48.30688477 C0.1726125 53.23464426 0.18456976 58.16233948 0.18975449 63.0901432 C0.1934493 64.97000452 0.20066432 66.84986233 0.21146011 68.72969627 C0.22598182 71.3630877 0.22797765 73.99621364 0.22705078 76.62963867 C0.23424133 77.40647507 0.24143188 78.18331146 0.24884033 78.98368835 C0.23205182 83.39298011 -0.30520003 85.76300007 -2 90 C-40.28 90 -78.56 90 -118 90 C-115.79613936 85.59227872 -113.37291089 83.84713168 -109.4375 81.1875 C-108.15526845 80.29698457 -106.87401665 79.40505675 -105.59375 78.51171875 C-104.97242188 78.08036621 -104.35109375 77.64901367 -103.7109375 77.20458984 C-100.03048883 74.61336072 -96.53221951 71.78732968 -93 69 C-85.39187627 63.08740099 -77.71425335 57.27324767 -70 51.5 C-60.56392378 44.4363476 -51.18565511 37.31089361 -41.93530273 30.00488281 C-34.39656491 24.05308142 -26.75788973 18.24757009 -19.04638672 12.52148438 C-16.93478174 10.95151036 -14.82878262 9.37418834 -12.72265625 7.796875 C-11.35709129 6.78081917 -9.99121716 5.7651787 -8.625 4.75 C-7.98828369 4.27175781 -7.35156738 3.79351562 -6.69555664 3.30078125 C-2.22860546 0 -2.22860546 0 0 0 Z " fill="#FDFDFD" transform="translate(1670,413)"/>
<path d="M0 0 C0.66 0 1.32 0 2 0 C5.24304854 7.91303844 8.32416941 15.80072699 10.9519043 23.94360352 C11.93348292 26.80602672 13.03190726 29.56115231 14.21875 32.34375 C17.41963208 39.95031095 20.42608532 47.62956561 23.4375 55.3125 C26.6830142 63.58326495 29.93042308 71.85316293 33.22265625 80.10546875 C33.68551025 81.2658667 34.14836426 82.42626465 34.62524414 83.62182617 C35.33796272 85.37318242 36.05617472 87.12335413 36.83981323 88.84414673 C38.3754049 92.22698982 39 94.20244714 39 98 C13.59 98 -11.82 98 -38 98 C-34.62093496 87.86280488 -34.62093496 87.86280488 -32.6796875 82.8515625 C-32.23512207 81.70236328 -31.79055664 80.55316406 -31.33251953 79.36914062 C-30.84682818 78.12103595 -30.36098341 76.87299098 -29.875 75.625 C-29.35919787 74.29622954 -28.84341056 72.96745332 -28.32763672 71.63867188 C-19.02391547 47.70525428 -9.5577577 23.83303916 0 0 Z " fill="#FBFBFB" transform="translate(1021,797)"/>
<path d="M0 0 C14.36896227 -0.04675878 28.73791272 -0.0818748 43.1069355 -0.10362434 C49.77900278 -0.11406286 56.45100903 -0.12822343 63.12304688 -0.15087891 C69.56154762 -0.17260465 75.99999921 -0.18456812 82.43853378 -0.18975449 C84.89532114 -0.1934507 87.35210579 -0.20066842 89.80887222 -0.21146011 C93.24910555 -0.22597124 96.68913553 -0.22797807 100.12939453 -0.22705078 C101.65393501 -0.23783661 101.65393501 -0.23783661 103.20927429 -0.24884033 C109.67786288 -0.22996545 114.49106236 0.32737491 120 4 C120.29296875 6.6015625 120.29296875 6.6015625 120.1875 9.625 C120.14689453 11.12933594 120.14689453 11.12933594 120.10546875 12.6640625 C120.07066406 13.43492187 120.03585937 14.20578125 120 15 C117.54742611 16.22628694 115.95985219 16.12580926 113.21728516 16.12698364 C111.70294891 16.13121338 111.70294891 16.13121338 110.15802002 16.13552856 C108.49038605 16.13249222 108.49038605 16.13249222 106.7890625 16.12939453 C105.62155457 16.13114685 104.45404663 16.13289917 103.25115967 16.13470459 C100.04462061 16.13835872 96.83812263 16.13749224 93.63158417 16.1343255 C90.27994247 16.1317983 86.92830187 16.13414045 83.57666016 16.13571167 C77.94758611 16.13753231 72.31852518 16.13512982 66.68945312 16.13037109 C60.1763256 16.12492867 53.66322938 16.1266914 47.15010262 16.1321975 C41.56366266 16.13673163 35.97723214 16.1373777 30.39079094 16.13475883 C27.05180293 16.13319772 23.71282657 16.13299778 20.37384033 16.13629532 C16.65285092 16.13882313 12.93192236 16.13497938 9.2109375 16.12939453 C8.09918152 16.13141876 6.98742554 16.13344299 5.84197998 16.13552856 C4.83242249 16.13270874 3.82286499 16.12988892 2.78271484 16.12698364 C1.9022348 16.12660662 1.02175476 16.12622959 0.11459351 16.12584114 C-2 16 -2 16 -4 15 C-5.69207251 11.61585498 -6.59613955 8.77555048 -6 5 C-3.95575462 3.02389614 -2.8823175 2 0 2 C0 1.34 0 0.68 0 0 Z " fill="#67031D" transform="translate(1122,428)"/>
<path d="M0 0 C0.680625 -0.01675781 1.36125 -0.03351563 2.0625 -0.05078125 C4.62468892 0.42962917 5.47104952 1.21951596 7 3.3125 C7.46875 5.3984375 7.46875 5.3984375 7.5 7.6875 C7.5309375 8.43773437 7.561875 9.18796875 7.59375 9.9609375 C6.3004807 15.0829646 1.77256476 17.55924634 -2.4765625 20.1796875 C-4.1886429 21.18921826 -5.90498023 22.19155641 -7.625 23.1875 C-9.43416875 24.25423374 -11.24276796 25.32193403 -13.05078125 26.390625 C-13.91268066 26.89787109 -14.77458008 27.40511719 -15.66259766 27.92773438 C-21.3457208 31.29463165 -26.88166733 34.88068074 -32.359375 38.5703125 C-40.71992304 44.19965109 -49.20708475 49.55158755 -57.828125 54.7734375 C-61.24784869 56.84651032 -64.63348394 58.96624535 -68 61.125 C-68.84304688 61.65867187 -69.68609375 62.19234375 -70.5546875 62.7421875 C-72.24300344 63.82637761 -73.91412016 64.93765816 -75.5703125 66.0703125 C-80.56764389 69.35601968 -84.15339933 70.97735431 -90.1875 70.71875 C-92 70.3125 -92 70.3125 -94 68.3125 C-94.1953125 65.9296875 -94.1953125 65.9296875 -94.125 63.1875 C-94.10695313 62.27742188 -94.08890625 61.36734375 -94.0703125 60.4296875 C-94.04710937 59.73101562 -94.02390625 59.03234375 -94 58.3125 C-93.34 58.3125 -92.68 58.3125 -92 58.3125 C-91.67 57.3225 -91.34 56.3325 -91 55.3125 C-87.34477217 52.35753687 -83.27821835 49.93801111 -79.0625 47.875 C-75.31608163 45.96356206 -72.05666391 43.57515499 -68.63671875 41.13671875 C-65.36831594 38.87546821 -61.9903105 36.8584417 -58.56640625 34.84375 C-54.88898594 32.64961186 -51.29844979 30.3251537 -47.6953125 28.01171875 C-45.28337947 26.49115227 -42.84313789 25.05150003 -40.375 23.625 C-35.57440491 20.78445649 -31.08909792 17.56296149 -26.5625 14.3125 C-20.92179773 10.26545108 -15.29812382 6.56386356 -9.1015625 3.3984375 C-2.55280017 0.01450455 -2.55280017 0.01450455 0 0 Z " fill="#69051B" transform="translate(1636,357.6875)"/>
<path d="M0 0 C1.35595725 0.32597303 2.71082143 0.65671655 4.0625 1 C4.0625 1.66 4.0625 2.32 4.0625 3 C4.80113281 3.17015625 5.53976562 3.3403125 6.30078125 3.515625 C17.24307611 6.12954042 27.47630854 10.04872029 37.8125 14.4375 C43.98154602 17.0116883 50.22131073 19.10013275 56.58984375 21.1171875 C58.46349609 21.73980469 58.46349609 21.73980469 60.375 22.375 C62.13263672 22.94347656 62.13263672 22.94347656 63.92578125 23.5234375 C67.46331207 25.18867617 69.00049476 26.70588299 71.0625 30 C71.0625 33.49082775 70.42437925 35.40211255 68.625 38.375 C64.71284079 40.85588145 60.58258663 40.67722552 56.0625 40 C55.4025 39.34 54.7425 38.68 54.0625 38 C52.20114876 37.46477636 52.20114876 37.46477636 50.0625 37.125 C46.68987669 36.44543112 43.65604351 35.52297214 40.484375 34.1953125 C34.81782741 31.87822643 29.07839142 29.80505666 23.3125 27.75 C21.12097971 26.96516211 18.92957599 26.17999865 16.73828125 25.39453125 C15.0843335 24.80212646 15.0843335 24.80212646 13.39697266 24.19775391 C8.09261665 22.29241121 2.79596919 20.36600908 -2.5 18.4375 C-3.45165039 18.09106445 -4.40330078 17.74462891 -5.38378906 17.38769531 C-7.56848793 16.59214898 -9.75306867 15.79628059 -11.9375 15 C-11.9375 14.34 -11.9375 13.68 -11.9375 13 C-12.9275 12.67 -13.9175 12.34 -14.9375 12 C-16.48336876 8.90826248 -16.23109521 6.40570448 -15.9375 3 C-12.05223897 -3.0610072 -6.1694927 -1.33866351 0 0 Z " fill="#70081F" transform="translate(1323.9375,624)"/>
<path d="M0 0 C0.7288591 -0.00511093 1.4577182 -0.01022186 2.20866394 -0.01548767 C4.62137034 -0.02940079 7.03379141 -0.02842479 9.4465332 -0.02612305 C11.12702032 -0.03001077 12.80750646 -0.0343456 14.48799133 -0.03910828 C18.0144875 -0.04657544 21.54088359 -0.0462769 25.06738281 -0.04101562 C29.57197961 -0.03523881 34.07616284 -0.05210599 38.58069134 -0.0753603 C42.05441153 -0.09014712 45.52803347 -0.09096231 49.00177956 -0.08785057 C50.66145454 -0.08836191 52.3211353 -0.09356432 53.98077965 -0.10366249 C56.31167147 -0.11609755 58.64177558 -0.10919235 60.97265625 -0.09765625 C61.64983704 -0.10529999 62.32701782 -0.11294373 63.02471924 -0.12081909 C68.22950607 -0.06431719 72.07994689 1.28480477 76.80981445 3.2746582 C76.83667998 5.25375218 76.85614821 7.23294791 76.87231445 9.2121582 C76.88391602 10.31430664 76.89551758 11.41645508 76.9074707 12.55200195 C76.80981445 15.2746582 76.80981445 15.2746582 75.80981445 16.2746582 C73.07093026 16.36982032 70.35733504 16.40020415 67.61816406 16.38818359 C66.75970383 16.38832962 65.90124359 16.38847565 65.01676941 16.3886261 C62.16520707 16.38792667 59.3137092 16.3801329 56.4621582 16.37231445 C54.49060604 16.37045038 52.51905341 16.36902643 50.54750061 16.36802673 C45.34755179 16.36420072 40.1476307 16.35436972 34.94769287 16.34332275 C29.64587784 16.33311043 24.34405835 16.3285295 19.04223633 16.32348633 C8.63141682 16.31274753 -1.77938206 16.29567011 -12.19018555 16.2746582 C-14.1056285 12.71959609 -14.70062621 10.35818349 -14.19018555 6.2746582 C-10.00550279 1.07987961 -6.52595595 0.0227899 0 0 Z " fill="#70061A" transform="translate(1903.190185546875,322.725341796875)"/>
<path d="M0 0 C1.32 0.66 2.64 1.32 4 2 C4 5.63 4 9.26 4 13 C1.54742611 14.22628694 -0.04014781 14.12580926 -2.78271484 14.12698364 C-4.29705109 14.13121338 -4.29705109 14.13121338 -5.84197998 14.13552856 C-7.50961395 14.13249222 -7.50961395 14.13249222 -9.2109375 14.12939453 C-10.37844543 14.13114685 -11.54595337 14.13289917 -12.74884033 14.13470459 C-15.95537939 14.13835872 -19.16187737 14.13749224 -22.36841583 14.1343255 C-25.72005753 14.1317983 -29.07169813 14.13414045 -32.42333984 14.13571167 C-38.05241389 14.13753231 -43.68147482 14.13512982 -49.31054688 14.13037109 C-55.8236744 14.12492867 -62.33677062 14.1266914 -68.84989738 14.1321975 C-74.43633734 14.13673163 -80.02276786 14.1373777 -85.60920906 14.13475883 C-88.94819707 14.13319772 -92.28717343 14.13299778 -95.62615967 14.13629532 C-99.34714908 14.13882313 -103.06807764 14.13497938 -106.7890625 14.12939453 C-107.90081848 14.13141876 -109.01257446 14.13344299 -110.15802002 14.13552856 C-111.16757751 14.13270874 -112.17713501 14.12988892 -113.21728516 14.12698364 C-114.0977652 14.12660662 -114.97824524 14.12622959 -115.88540649 14.12584114 C-118 14 -118 14 -120 13 C-121.72664863 9.54670274 -122.21952523 6.84169158 -122 3 C-121.34 2.67 -120.68 2.34 -120 2 C-119.34 3.65 -118.68 5.3 -118 7 C-117.67 6.67 -117.34 6.34 -117 6 C-115.55786001 5.90441964 -114.11105921 5.87811606 -112.66575623 5.87974548 C-111.26273758 5.87768349 -111.26273758 5.87768349 -109.83137512 5.87557983 C-108.79703842 5.87917511 -107.76270172 5.88277039 -106.69702148 5.88647461 C-105.61422913 5.88632858 -104.53143677 5.88618256 -103.41583252 5.8860321 C-99.81756626 5.88673177 -96.21935103 5.89452667 -92.62109375 5.90234375 C-90.13387582 5.90420774 -87.64665752 5.90563173 -85.15943909 5.90663147 C-79.26978809 5.9100665 -73.3801561 5.91795723 -67.49051291 5.92798096 C-60.12974626 5.94023754 -52.76897736 5.94562209 -45.40820312 5.95117188 C-32.27212602 5.96191185 -19.13606417 5.97879911 -6 6 C-6 6.99 -6 7.98 -6 9 C-6.66 9.33 -7.32 9.66 -8 10 C-5.04335481 11.4783226 -2.25770263 11.06032783 1 11 C0.505 5.555 0.505 5.555 0 0 Z " fill="#6E0421" transform="translate(1238,430)"/>
<path d="M0 0 C1.35595725 0.32597303 2.71082143 0.65671655 4.0625 1 C4.0625 1.66 4.0625 2.32 4.0625 3 C4.80113281 3.17015625 5.53976562 3.3403125 6.30078125 3.515625 C15.20422691 5.64249639 23.5821879 8.58663645 32.0625 12 C28.97361478 14.05925681 28.35314073 14.2390374 24.875 14.125 C22.9878125 14.063125 22.9878125 14.063125 21.0625 14 C20.7325 14.99 20.4025 15.98 20.0625 17 C19.0725 17.33 18.0825 17.66 17.0625 18 C16.0725 17.34 15.0825 16.68 14.0625 16 C12.93733915 17.83284443 12.93733915 17.83284443 12.0625 20 C12.3925 20.99 12.7225 21.98 13.0625 23 C8.75413485 22.26260673 4.69088948 20.96451742 0.5625 19.5625 C-0.08847656 19.34529297 -0.73945312 19.12808594 -1.41015625 18.90429688 C-4.966379 17.70811286 -8.47014647 16.43361732 -11.9375 15 C-11.9375 14.34 -11.9375 13.68 -11.9375 13 C-12.9275 12.67 -13.9175 12.34 -14.9375 12 C-16.48336876 8.90826248 -16.23109521 6.40570448 -15.9375 3 C-12.05223897 -3.0610072 -6.1694927 -1.33866351 0 0 Z " fill="#6F0A22" transform="translate(1323.9375,624)"/>
<path d="M0 0 C0.99 0.33 1.98 0.66 3 1 C-2.0940919 7.70459519 -2.0940919 7.70459519 -5.875 8.9375 C-6.57625 8.958125 -7.2775 8.97875 -8 9 C-8.33 10.65 -8.66 12.3 -9 14 C-9.66 14 -10.32 14 -11 14 C-11 14.66 -11 15.32 -11 16 C-6.82262526 17.59138085 -3.46839215 18.21278058 1 18 C1.66 16.35 2.32 14.7 3 13 C3.495 14.485 3.495 14.485 4 16 C4.66 16.33 5.32 16.66 6 17 C5.15179687 17.54527344 4.30359375 18.09054687 3.4296875 18.65234375 C2.58954102 19.1930249 2.58954102 19.1930249 1.73242188 19.74462891 C0.48255183 20.54731885 -0.76878046 21.347736 -2.02148438 22.14599609 C-5.33041921 24.25911956 -8.60677826 26.40325853 -11.8359375 28.63671875 C-12.45065918 29.05381104 -13.06538086 29.47090332 -13.69873047 29.90063477 C-14.87648453 30.70118188 -16.04532582 31.51504316 -17.20361328 32.34350586 C-20.22632941 34.37409798 -21.72106027 35.02111241 -25.40625 34.7421875 C-26.2621875 34.49726563 -27.118125 34.25234375 -28 34 C-26.37660195 32.29115995 -24.70680947 30.62553283 -23 29 C-22.34 29 -21.68 29 -21 29 C-21 28.01 -21 27.02 -21 26 C-21.598125 25.87625 -22.19625 25.7525 -22.8125 25.625 C-25 25 -25 25 -28 23 C-28.6875 20.875 -28.6875 20.875 -29 19 C-21.69974902 13.80740212 -14.37994504 8.90135312 -6.55859375 4.5078125 C-3.98434397 3.07794497 -3.98434397 3.07794497 -1.84765625 1.2421875 C-1.23792969 0.83226562 -0.62820313 0.42234375 0 0 Z " fill="#6F031D" transform="translate(1592,383)"/>
<path d="M0 0 C2.01822917 0.06510417 4.03645833 0.13020833 6.0546875 0.1953125 C6.0546875 0.8553125 6.0546875 1.5153125 6.0546875 2.1953125 C8.6946875 2.1953125 11.3346875 2.1953125 14.0546875 2.1953125 C14.0546875 3.1853125 14.0546875 4.1753125 14.0546875 5.1953125 C14.7146875 5.5253125 15.3746875 5.8553125 16.0546875 6.1953125 C15.3946875 6.5253125 14.7346875 6.8553125 14.0546875 7.1953125 C13.7246875 8.1853125 13.3946875 9.1753125 13.0546875 10.1953125 C10.9453125 11.765625 10.9453125 11.765625 8.3046875 13.3203125 C7.44359375 13.83851563 6.5825 14.35671875 5.6953125 14.890625 C2.48557071 16.47650334 -0.36994656 17.1953125 -3.9453125 17.1953125 C-4.3578125 17.6903125 -4.7703125 18.1853125 -5.1953125 18.6953125 C-6.9453125 20.1953125 -6.9453125 20.1953125 -9.8828125 20.5703125 C-13.212112 20.16264317 -14.59438716 19.54623784 -16.9453125 17.1953125 C-16.9453125 16.5353125 -16.9453125 15.8753125 -16.9453125 15.1953125 C-16.2853125 15.1953125 -15.6253125 15.1953125 -14.9453125 15.1953125 C-14.9040625 14.4321875 -14.8628125 13.6690625 -14.8203125 12.8828125 C-13.9453125 10.1953125 -13.9453125 10.1953125 -11.1328125 8.6953125 C-10.0809375 8.2003125 -9.0290625 7.7053125 -7.9453125 7.1953125 C-5.69680767 4.71869752 -5.69680767 4.71869752 -3.9453125 2.1953125 C-1.9453125 0.1953125 -1.9453125 0.1953125 0 0 Z " fill="#6B021A" transform="translate(1597.9453125,381.8046875)"/>
<path d="M0 0 C1.20272819 2.40545638 1.10071472 3.94996953 1.0625 6.625 C1.05347656 7.44226563 1.04445313 8.25953125 1.03515625 9.1015625 C1.02355469 9.72804688 1.01195312 10.35453125 1 11 C-5.0546875 11.9765625 -5.0546875 11.9765625 -7 12 C-7.99 11.01 -7.99 11.01 -9 10 C-8.01 9.67 -7.02 9.34 -6 9 C-6 8.01 -6 7.02 -6 6 C-20.43811121 6.10715362 -34.87616864 6.21996476 -49.31418419 6.33933926 C-56.01770651 6.39466372 -62.72123416 6.44814444 -69.42480469 6.49731445 C-75.88925712 6.54491442 -82.35365509 6.59725559 -88.81804276 6.65294075 C-91.28927893 6.67338413 -93.76053005 6.69209387 -96.23179245 6.70907402 C-99.68241553 6.73307415 -103.13293491 6.7631347 -106.58349609 6.79467773 C-107.61423752 6.8004332 -108.64497894 6.80618866 -109.70695496 6.81211853 C-110.64367538 6.82190735 -111.58039581 6.83169617 -112.54550171 6.84178162 C-113.77056458 6.85146044 -113.77056458 6.85146044 -115.02037621 6.8613348 C-117.07593911 6.8781269 -117.07593911 6.8781269 -119 8 C-119.33 5.69 -119.66 3.38 -120 1 C-119.01 1.33 -118.02 1.66 -117 2 C-117 2.33 -117 2.66 -117 3 C-81.03 3.33 -45.06 3.66 -8 4 C-7.67 3.01 -7.34 2.02 -7 1 C-4.53721199 -0.231394 -2.7204945 -0.07159196 0 0 Z " fill="#5E071E" transform="translate(1238,430)"/>
<path d="M0 0 C4.4298712 -0.5537339 7.09826249 0.88720135 10.875 2.92578125 C12.98836537 3.99411852 15.06819814 4.75327457 17.3125 5.5 C22.55718475 7.63343109 22.55718475 7.63343109 24 11 C23.92864323 14.42512514 23.3335482 16.44892036 21.5625 19.375 C17.65034079 21.85588145 13.52008663 21.67722552 9 21 C8.34 20.34 7.68 19.68 7 19 C4.80295489 18.32348793 4.80295489 18.32348793 2.375 17.875 C1.55773438 17.70742188 0.74046875 17.53984375 -0.1015625 17.3671875 C-0.72804688 17.24601563 -1.35453125 17.12484375 -2 17 C-0.04783565 15.04783565 1.53199953 14.15173355 4 13 C4 10.36 4 7.72 4 5 C3.34 5 2.68 5 2 5 C2 4.34 2 3.68 2 3 C2.66 3 3.32 3 4 3 C4 2.34 4 1.68 4 1 C2.68 0.67 1.36 0.34 0 0 Z " fill="#6B1127" transform="translate(1371,643)"/>
<path d="M0 0 C1.32 0.66 2.64 1.32 4 2 C4 5.63 4 9.26 4 13 C1.54273762 14.22863119 -0.04823262 14.12312293 -2.7961731 14.12025452 C-3.80862091 14.12162918 -4.82106873 14.12300385 -5.86419678 14.12442017 C-6.97909485 14.12082489 -8.09399292 14.11722961 -9.24267578 14.11352539 C-10.4133963 14.11367142 -11.58411682 14.11381744 -12.79031372 14.1139679 C-16.0049861 14.1133896 -19.21961523 14.10836593 -22.43427896 14.10139394 C-25.79219278 14.09515295 -29.1501074 14.09455601 -32.50802612 14.09336853 C-38.86867548 14.09025742 -45.22930769 14.08204698 -51.58994949 14.07201904 C-58.83048451 14.06085109 -66.07102034 14.05534573 -73.31156182 14.05032361 C-88.20771744 14.0398642 -103.10385701 14.022269 -118 14 C-114.78714767 11.85809845 -113.93348992 11.74551453 -110.23542786 11.7215271 C-108.76517906 11.70478188 -108.76517906 11.70478188 -107.26522827 11.68769836 C-106.19132843 11.68553818 -105.11742859 11.68337799 -104.01098633 11.68115234 C-102.87913406 11.67110672 -101.7472818 11.6610611 -100.58113098 11.65071106 C-96.83143635 11.61976393 -93.08181348 11.60281174 -89.33203125 11.5859375 C-86.73556394 11.56723515 -84.13910276 11.54766245 -81.54264832 11.5272522 C-75.40164564 11.48108577 -69.26064683 11.44371297 -63.11956185 11.41057932 C-56.1280323 11.37236803 -49.13659601 11.32295531 -42.14514506 11.27259517 C-27.76349932 11.169254 -13.38179107 11.08039806 1 11 C0.505 5.555 0.505 5.555 0 0 Z " fill="#7D1C38" transform="translate(1238,430)"/>
<path d="M0 0 C14.38624518 -0.02336949 28.77248741 -0.04093259 43.15874767 -0.05181217 C49.83866808 -0.05703349 56.51857326 -0.06411757 63.19848633 -0.07543945 C69.6434625 -0.08629493 76.08842641 -0.09228251 82.53341103 -0.09487724 C84.99381008 -0.09672668 87.45420844 -0.10033808 89.91460228 -0.10573006 C93.35738965 -0.11297572 96.80012617 -0.11398944 100.24291992 -0.11352539 C101.77285332 -0.1189183 101.77285332 -0.1189183 103.33369446 -0.12442017 C104.27453888 -0.1230455 105.2153833 -0.12167084 106.18473816 -0.12025452 C107.40565297 -0.12163721 107.40565297 -0.12163721 108.65123272 -0.12304783 C111.1792922 0.00939281 113.53245043 0.44738362 116 1 C116 1.33 116 1.66 116 2 C109.62577378 2.94859871 103.43280011 3.13667834 96.99414062 3.11352539 C95.38304916 3.11374443 95.38304916 3.11374443 93.7394104 3.1139679 C90.21166927 3.11327475 86.68398184 3.10551047 83.15625 3.09765625 C80.701457 3.09578994 78.24666362 3.09436704 75.79187012 3.09336853 C69.34752362 3.0895601 62.90319985 3.07974416 56.4588623 3.06866455 C49.87622383 3.05841438 43.29358166 3.05386319 36.7109375 3.04882812 C23.807282 3.03812035 10.90364221 3.02125776 -2 3 C-1.34 2.67 -0.68 2.34 0 2 C0 1.34 0 0.68 0 0 Z " fill="#70142C" transform="translate(1122,428)"/>
<path d="M0 0 C0.99 0 1.98 0 3 0 C3.042721 1.66611905 3.04063832 3.33382885 3 5 C1.18884376 6.81115624 -1.29877501 6.11995376 -3.70901489 6.12442017 C-4.52828461 6.12082489 -5.34755432 6.11722961 -6.19165039 6.11352539 C-7.05011063 6.11367142 -7.90857086 6.11381744 -8.79304504 6.1139679 C-11.64460738 6.11326847 -14.49610525 6.1054747 -17.34765625 6.09765625 C-19.31920842 6.09579218 -21.29076105 6.09436822 -23.26231384 6.09336853 C-28.46226267 6.08954251 -33.66218375 6.07971152 -38.86212158 6.06866455 C-44.16393661 6.05845222 -49.4657561 6.05387129 -54.76757812 6.04882812 C-65.17839763 6.03808933 -75.58919651 6.02101191 -86 6 C-86 5.01 -86 4.02 -86 3 C-85.34 2.67 -84.68 2.34 -84 2 C-84 2.66 -84 3.32 -84 4 C-56.61 3.67 -29.22 3.34 -1 3 C-0.67 2.01 -0.34 1.02 0 0 Z " fill="#873341" transform="translate(1977,333)"/>
<path d="M0 0 C2.20239676 1.59673765 2.90820696 2.45516388 3.36328125 5.15625 C3.34652344 5.9296875 3.32976562 6.703125 3.3125 7.5 C3.30863281 8.2734375 3.30476563 9.046875 3.30078125 9.84375 C3 12 3 12 1 15 C-1.31 14.67 -3.62 14.34 -6 14 C-6 13.34 -6 12.68 -6 12 C-7.7015625 11.4121875 -7.7015625 11.4121875 -9.4375 10.8125 C-13 9 -13 9 -13.9375 6.3125 C-13.958125 5.549375 -13.97875 4.78625 -14 4 C-9.1373462 0.10987696 -6.23706342 -0.71572859 0 0 Z " fill="#5F0315" transform="translate(1640,358)"/>
<path d="M0 0 C0.1079859 2.43868168 0.18726589 4.87259133 0.25 7.3125 C0.30027344 8.34793945 0.30027344 8.34793945 0.3515625 9.40429688 C0.390625 11.42578125 0.390625 11.42578125 0 15 C-2.015625 16.79296875 -2.015625 16.79296875 -4 18 C-4 18.99 -4 19.98 -4 21 C-5.65 21 -7.3 21 -9 21 C-9 14.4 -9 7.8 -9 1 C-6.04335481 -0.4783226 -3.25770263 -0.06032783 0 0 Z " fill="#FAFAFB" transform="translate(2972,855)"/>
<path d="M0 0 C4.29 0 8.58 0 13 0 C13.66 1.65 14.32 3.3 15 5 C13.33333333 5.66666667 11.66666667 6.33333333 10 7 C9.175 7.350625 8.35 7.70125 7.5 8.0625 C2.60342965 9.89871388 -1.78263975 10.10230118 -7 10 C-7 9.34 -7 8.68 -7 8 C-7.66 7.67 -8.32 7.34 -9 7 C-8.01 5.35 -7.02 3.7 -6 2 C-5.01 2.33 -4.02 2.66 -3 3 C-2.01 3 -1.02 3 0 3 C0 2.01 0 1.02 0 0 Z " fill="#66081A" transform="translate(1344,637)"/>
<path d="M0 0 C0.7288591 -0.00511093 1.4577182 -0.01022186 2.20866394 -0.01548767 C4.62137034 -0.02940079 7.03379141 -0.02842479 9.4465332 -0.02612305 C11.12702032 -0.03001077 12.80750646 -0.0343456 14.48799133 -0.03910828 C18.0144875 -0.04657544 21.54088359 -0.0462769 25.06738281 -0.04101562 C29.57197961 -0.03523881 34.07616284 -0.05210599 38.58069134 -0.0753603 C42.05441153 -0.09014712 45.52803347 -0.09096231 49.00177956 -0.08785057 C50.66145454 -0.08836191 52.3211353 -0.09356432 53.98077965 -0.10366249 C56.31167147 -0.11609755 58.64177558 -0.10919235 60.97265625 -0.09765625 C61.64983704 -0.10529999 62.32701782 -0.11294373 63.02471924 -0.12081909 C68.22950607 -0.06431719 72.07994689 1.28480477 76.80981445 3.2746582 C76.80981445 5.5846582 76.80981445 7.8946582 76.80981445 10.2746582 C76.14981445 10.6046582 75.48981445 10.9346582 74.80981445 11.2746582 C73.81981445 8.7996582 73.81981445 8.7996582 72.80981445 6.2746582 C70.49981445 5.9446582 68.18981445 5.6146582 65.80981445 5.2746582 C66.13981445 3.9546582 66.46981445 2.6346582 66.80981445 1.2746582 C43.04981445 1.2746582 19.28981445 1.2746582 -5.19018555 1.2746582 C-5.52018555 2.2646582 -5.85018555 3.2546582 -6.19018555 4.2746582 C-7.51018555 3.6146582 -8.83018555 2.9546582 -10.19018555 2.2746582 C-6.44632086 -0.22125159 -4.47634996 0.01563228 0 0 Z " fill="#561B28" transform="translate(1903.190185546875,322.725341796875)"/>
<path d="M0 0 C1.98 0 3.96 0 6 0 C6.02887814 3.47914941 6.04675687 6.95826831 6.0625 10.4375 C6.07087891 11.43072266 6.07925781 12.42394531 6.08789062 13.44726562 C6.09111328 14.39150391 6.09433594 15.33574219 6.09765625 16.30859375 C6.10289307 17.18314209 6.10812988 18.05769043 6.11352539 18.95874023 C6 21 6 21 5 22 C3.35 22 1.7 22 0 22 C0 14.74 0 7.48 0 0 Z " fill="#FCFCFC" transform="translate(0,855)"/>
<path d="M0 0 C13.86470979 -0.02337134 27.72941651 -0.04093349 41.59414196 -0.05181217 C48.03192515 -0.0570331 54.46969512 -0.06411648 60.9074707 -0.07543945 C67.11902814 -0.08629631 73.33057286 -0.0922828 79.54213905 -0.09487724 C81.9132234 -0.09672643 84.28430704 -0.10033736 86.65538597 -0.10573006 C89.97364183 -0.11297755 93.29184493 -0.11398936 96.61010742 -0.11352539 C98.08393639 -0.1189183 98.08393639 -0.1189183 99.58753967 -0.12442017 C100.49472748 -0.1230455 101.40191528 -0.12167084 102.33659363 -0.12025452 C103.12103946 -0.12117631 103.90548529 -0.1220981 104.7137022 -0.12304783 C107.21771759 0.01171749 109.55519186 0.45482957 112 1 C112 1.33 112 1.66 112 2 C107.82887801 2.93850245 104.47633994 2.82147431 100.26780701 2.25123787 C96.21876836 1.80266714 92.1658048 1.82106918 88.09570312 1.79467773 C87.138685 1.78477814 86.18166687 1.77487854 85.19564819 1.76467896 C82.05753994 1.73329315 78.91941659 1.70839789 75.78125 1.68359375 C73.59549585 1.66300439 71.40974551 1.64200742 69.22399902 1.62062073 C63.48989964 1.56560466 57.75576554 1.51610566 52.02160645 1.46777344 C46.16281063 1.41740839 40.30406479 1.36180087 34.4453125 1.30664062 C22.96358444 1.19930961 11.48181285 1.09780966 0 1 C0 0.67 0 0.34 0 0 Z " fill="#763043" transform="translate(1126,428)"/>
<path d="M0 0 C0.99 0.33 1.98 0.66 3 1 C2.67 1.99 2.34 2.98 2 4 C1.34 4 0.68 4 0 4 C0 2.68 0 1.36 0 0 Z M-14 1 C-13.67 1.66 -13.34 2.32 -13 3 C-10.19019327 3.69227032 -10.19019327 3.69227032 -6.9375 4.125 C-5.83277344 4.29257812 -4.72804688 4.46015625 -3.58984375 4.6328125 C-2.73519531 4.75398437 -1.88054687 4.87515625 -1 5 C-0.87753906 5.63421875 -0.75507812 6.2684375 -0.62890625 6.921875 C-0.19303909 9.19716567 -0.19303909 9.19716567 2.0625 10.25 C3.0215625 10.62125 3.0215625 10.62125 4 11 C2 12 2 12 -0.3984375 11.41088867 C-1.38070313 11.0832251 -2.36296875 10.75556152 -3.375 10.41796875 C-4.44234375 10.06283203 -5.5096875 9.70769531 -6.609375 9.34179688 C-8.28773437 8.77041992 -8.28773437 8.77041992 -10 8.1875 C-11.11890625 7.81818359 -12.2378125 7.44886719 -13.390625 7.06835938 C-21.73996247 4.26003753 -21.73996247 4.26003753 -24 2 C-17.375 1 -17.375 1 -14 1 Z " fill="#771229" transform="translate(1361,645)"/>
<path d="M0 0 C0.99 0.33 1.98 0.66 3 1 C-2.0940919 7.70459519 -2.0940919 7.70459519 -5.875 8.9375 C-6.57625 8.958125 -7.2775 8.97875 -8 9 C-8.33 10.65 -8.66 12.3 -9 14 C-11.31 14.33 -13.62 14.66 -16 15 C-16 14.34 -16 13.68 -16 13 C-16.66 12.34 -17.32 11.68 -18 11 C-17.03578125 10.45730469 -16.0715625 9.91460937 -15.078125 9.35546875 C-13.80200123 8.6329575 -12.52596412 7.91029317 -11.25 7.1875 C-10.61578125 6.83107422 -9.9815625 6.47464844 -9.328125 6.10742188 C-6.63628422 4.57924143 -4.15179321 3.12221971 -1.734375 1.17578125 C-1.16203125 0.78777344 -0.5896875 0.39976562 0 0 Z " fill="#741533" transform="translate(1592,383)"/>
<path d="M0 0 C1.35595725 0.32597303 2.71082143 0.65671655 4.0625 1 C3.0725 1.33 2.0825 1.66 1.0625 2 C1.0625 2.66 1.0625 3.32 1.0625 4 C-0.2575 4 -1.5775 4 -2.9375 4 C-2.9375 3.34 -2.9375 2.68 -2.9375 2 C-6.42420834 3.1094072 -9.71234237 4.26337666 -12.9375 6 C-12.9375 7.65 -12.9375 9.3 -12.9375 11 C-13.9275 10.67 -14.9175 10.34 -15.9375 10 C-16.41826923 3.75 -16.41826923 3.75 -14.375 0.5625 C-9.75485447 -2.39913175 -5.08893738 -1.10420339 0 0 Z " fill="#5D2336" transform="translate(1323.9375,624)"/>
<path d="M0 0 C-3.25907052 2.46379494 -6.53946151 4.89050967 -9.875 7.25 C-11.38707031 8.34054687 -11.38707031 8.34054687 -12.9296875 9.453125 C-16.53240459 11.26823437 -18.18184182 11.07136379 -22 10 C-20.37660195 8.29115995 -18.70680947 6.62553283 -17 5 C-16.34 5 -15.68 5 -15 5 C-14.67 4.01 -14.34 3.02 -14 2 C-11.625 1.375 -11.625 1.375 -9 1 C-8.34 1.66 -7.68 2.32 -7 3 C-7 2.34 -7 1.68 -7 1 C-4.53721199 -0.231394 -2.7204945 -0.07159196 0 0 Z " fill="#740826" transform="translate(1586,407)"/>
<path d="M0 0 C0 0.66 0 1.32 0 2 C1.32 2.33 2.64 2.66 4 3 C2.5 5.0625 2.5 5.0625 0 7 C-2.82406647 7.05928384 -5.20225927 6.55954815 -8 6 C-8 7.65 -8 9.3 -8 11 C-9.32 10.67 -10.64 10.34 -12 10 C-11.67 7.69 -11.34 5.38 -11 3 C-10.01 2.67 -9.02 2.34 -8 2 C-7.360625 1.649375 -6.72125 1.29875 -6.0625 0.9375 C-4 0 -4 0 0 0 Z " fill="#680B26" transform="translate(1321,626)"/>
<path d="M0 0 C0 0.66 0 1.32 0 2 C21.12 2 42.24 2 64 2 C64 2.33 64 2.66 64 3 C40.24 3 16.48 3 -8 3 C-8 2.67 -8 2.34 -8 2 C-2.25 0 -2.25 0 0 0 Z " fill="#850A26" transform="translate(1904,334)"/>
<path d="M0 0 C0.66 0.33 1.32 0.66 2 1 C0 4 0 4 -2.9375 5.4375 C-6.06285818 6.74642611 -6.06285818 6.74642611 -7.625 9.1875 C-8.07875 9.785625 -8.5325 10.38375 -9 11 C-10.32 11 -11.64 11 -13 11 C-13.33 11.66 -13.66 12.32 -14 13 C-20.04275534 14.36817102 -20.04275534 14.36817102 -23.4375 13.0625 C-23.953125 12.711875 -24.46875 12.36125 -25 12 C-24.34 12 -23.68 12 -23 12 C-23 11.34 -23 10.68 -23 10 C-22.42894531 9.9484375 -21.85789062 9.896875 -21.26953125 9.84375 C-13.92923449 8.81680864 -8.72425458 5.64687425 -2.6875 1.58203125 C-1.800625 1.05996094 -0.91375 0.53789062 0 0 Z " fill="#F1DFE4" transform="translate(1568,418)"/>
<path d="M0 0 C0 0.66 0 1.32 0 2 C-2.31 2 -4.62 2 -7 2 C-6.67 6.95 -6.34 11.9 -6 17 C-3.03 14.525 -3.03 14.525 0 12 C0 12.99 0 13.98 0 15 C-2 16.5 -2 16.5 -4 18 C-4 18.99 -4 19.98 -4 21 C-5.65 21 -7.3 21 -9 21 C-9 14.4 -9 7.8 -9 1 C-6.04335481 -0.4783226 -3.25770263 -0.06032783 0 0 Z " fill="#878688" transform="translate(2972,855)"/>
<path d="M0 0 C0 0.66 0 1.32 0 2 C-1.74414062 3.32861328 -1.74414062 3.32861328 -4.15625 4.8203125 C-5.01347656 5.35527344 -5.87070313 5.89023437 -6.75390625 6.44140625 C-7.66011719 6.99699219 -8.56632812 7.55257813 -9.5 8.125 C-10.40621094 8.68832031 -11.31242187 9.25164062 -12.24609375 9.83203125 C-14.49351291 11.22779683 -16.74486806 12.61674298 -19 14 C-19 12.33333333 -19 10.66666667 -19 9 C-17.88625 8.7525 -16.7725 8.505 -15.625 8.25 C-11.97964288 7.39476016 -11.97964288 7.39476016 -10.625 5 C-10.41875 4.34 -10.2125 3.68 -10 3 C-9.67 2.34 -9.34 1.68 -9 1 C-5.98003217 0.45091494 -3.07380605 0 0 0 Z " fill="#6D1728" transform="translate(1631,377)"/>
<path d="M0 0 C1.14095627 0.00015106 2.28191254 0.00030212 3.45744324 0.00045776 C4.6887648 0.01078033 5.92008636 0.02110291 7.1887207 0.03173828 C9.08011528 0.03598312 9.08011528 0.03598312 11.00971985 0.04031372 C14.35860618 0.04961953 17.70721986 0.06758375 21.05603027 0.08972168 C24.47458542 0.11019693 27.89316876 0.11931902 31.31176758 0.12939453 C38.01692115 0.15146898 44.72194581 0.18495716 51.42700195 0.22705078 C51.42700195 0.55705078 51.42700195 0.88705078 51.42700195 1.22705078 C33.27700195 1.22705078 15.12700195 1.22705078 -3.57299805 1.22705078 C-3.90299805 2.21705078 -4.23299805 3.20705078 -4.57299805 4.22705078 C-5.89299805 3.56705078 -7.21299805 2.90705078 -8.57299805 2.22705078 C-5.16617241 -0.04416631 -3.99502621 -0.01763808 0 0 Z " fill="#5C212E" transform="translate(1901.572998046875,322.77294921875)"/>
<path d="M0 0 C2.19370898 1.59406188 2.90259384 2.47286076 3.3984375 5.15625 C3.39070313 5.9296875 3.38296875 6.703125 3.375 7.5 C3.38273437 8.2734375 3.39046875 9.046875 3.3984375 9.84375 C2.91655268 12.45159728 2.01270624 13.33871866 0 15 C-0.07427838 11.65747276 -0.06546953 9.1964086 1 6 C0.67 5.01 0.34 4.02 0 3 C-1.4800841 3.11362262 -2.95910074 3.24122908 -4.4375 3.375 C-5.26121094 3.44460938 -6.08492187 3.51421875 -6.93359375 3.5859375 C-7.61550781 3.72257812 -8.29742188 3.85921875 -9 4 C-9.33 4.66 -9.66 5.32 -10 6 C-11.32 5.34 -12.64 4.68 -14 4 C-9.1373462 0.10987696 -6.23706342 -0.71572859 0 0 Z " fill="#662737" transform="translate(1640,358)"/>
<path d="M0 0 C0 3.17370278 -0.30933342 4.3794668 -2 7 C-3.32467746 7.6837045 -4.65863633 8.34964186 -6 9 C-7.73425773 11.03317007 -7.73425773 11.03317007 -9 13 C-6.69 13 -4.38 13 -2 13 C-4.79738782 14.5067748 -7.40322432 15.48224115 -10.5 16.1875 C-11.62921875 16.45626953 -11.62921875 16.45626953 -12.78125 16.73046875 C-15.14833379 17.01801942 -16.74544015 16.72248395 -19 16 C-18.13117187 15.34773437 -17.26234375 14.69546875 -16.3671875 14.0234375 C-10.56888742 9.63757613 -4.94195142 5.36554725 0 0 Z " fill="#E0E0E0" transform="translate(2106,944)"/>
<path d="M0 0 C1.32 0.66 2.64 1.32 4 2 C3.67 2.99 3.34 3.98 3 5 C1.68 5 0.36 5 -1 5 C-0.67 6.65 -0.34 8.3 0 10 C-2.31 10 -4.62 10 -7 10 C-7 9.34 -7 8.68 -7 8 C-7.66 7.67 -8.32 7.34 -9 7 C-8.01 5.35 -7.02 3.7 -6 2 C-5.01 2.33 -4.02 2.66 -3 3 C-2.01 3 -1.02 3 0 3 C0 2.01 0 1.02 0 0 Z M4 0 C6 1 6 1 6 1 Z " fill="#740720" transform="translate(1344,637)"/>
<path d="M0 0 C1.32 0.66 2.64 1.32 4 2 C4 5.63 4 9.26 4 13 C1.39048764 14.30475618 -0.52701285 14.11301572 -3.4453125 14.09765625 C-5.05986328 14.09282227 -5.05986328 14.09282227 -6.70703125 14.08789062 C-7.83496094 14.07951172 -8.96289062 14.07113281 -10.125 14.0625 C-11.26066406 14.05798828 -12.39632813 14.05347656 -13.56640625 14.04882812 C-16.37765638 14.03701615 -19.1888023 14.02054507 -22 14 C-22 13.67 -22 13.34 -22 13 C-21.40461426 12.97494385 -20.80922852 12.9498877 -20.19580078 12.92407227 C-17.50530864 12.80822506 -14.8151766 12.68544804 -12.125 12.5625 C-11.18785156 12.52318359 -10.25070312 12.48386719 -9.28515625 12.44335938 C-8.38925781 12.40146484 -7.49335937 12.35957031 -6.5703125 12.31640625 C-5.74289551 12.27974854 -4.91547852 12.24309082 -4.06298828 12.20532227 C-1.93820571 12.11761673 -1.93820571 12.11761673 0 11 C0 7.37 0 3.74 0 0 Z " fill="#743243" transform="translate(1238,430)"/>
<path d="M0 0 C0.66 0 1.32 0 2 0 C2 0.66 2 1.32 2 2 C1.01 2.495 1.01 2.495 0 3 C-0.12375 3.763125 -0.2475 4.52625 -0.375 5.3125 C-1.13843715 8.59527974 -2.49857349 9.8213382 -5 12 C-4.67 12.66 -4.34 13.32 -4 14 C-4.763125 14.12375 -5.52625 14.2475 -6.3125 14.375 C-9.20267136 14.88102792 -9.20267136 14.88102792 -12 17 C-10.53238339 12.50542413 -8.02169576 9.24015087 -5 5.6875 C-4.54882812 5.13771484 -4.09765625 4.58792969 -3.6328125 4.02148438 C-2.47111357 2.63810029 -1.24017305 1.31349409 0 0 Z " fill="#181818" transform="translate(1947,792)"/>
<path d="M0 0 C0.66 0 1.32 0 2 0 C3.625 2 3.625 2 5 4 C3.40089132 5.00806851 1.79551738 6.00620385 0.1875 7 C-1.15248047 7.8353125 -1.15248047 7.8353125 -2.51953125 8.6875 C-5 10 -5 10 -8 10 C-7.34 9.01 -6.68 8.02 -6 7 C-6.99 6.34 -7.98 5.68 -9 5 C-7.88625 4.54625 -6.7725 4.0925 -5.625 3.625 C-2.03800992 2.27534014 -2.03800992 2.27534014 0 0 Z " fill="#700F28" transform="translate(1606,388)"/>
<path d="M0 0 C0.33 0.66 0.66 1.32 1 2 C0.34 2 -0.32 2 -1 2 C-1.2475 2.639375 -1.495 3.27875 -1.75 3.9375 C-2.1625 4.618125 -2.575 5.29875 -3 6 C-3.66 6.12375 -4.32 6.2475 -5 6.375 C-5.99 6.684375 -5.99 6.684375 -7 7 C-8.15835673 9.97503122 -8.15835673 9.97503122 -9 13 C-9.99 13.495 -9.99 13.495 -11 14 C-11.66 13.34 -12.32 12.68 -13 12 C-13.99 12.99 -14.98 13.98 -16 15 C-16.99 14.67 -17.98 14.34 -19 14 C-12.73 9.38 -6.46 4.76 0 0 Z " fill="#1B1B1B" transform="translate(1633,420)"/>
<path d="M0 0 C0.99 0 1.98 0 3 0 C3 1.65 3 3.3 3 5 C-8.88 5 -20.76 5 -33 5 C-33 4.67 -33 4.34 -33 4 C-22.44 3.67 -11.88 3.34 -1 3 C-0.67 2.01 -0.34 1.02 0 0 Z " fill="#771A2C" transform="translate(1977,333)"/>
<path d="M0 0 C6.23440168 1.58960332 12.16287645 3.27600901 18 6 C15 8 15 8 11.8125 7.625 C10.884375 7.41875 9.95625 7.2125 9 7 C8.67 6.01 8.34 5.02 8 4 C5.36 3.67 2.72 3.34 0 3 C0 2.01 0 1.02 0 0 Z " fill="#823546" transform="translate(1338,630)"/>
<path d="M0 0 C-2.7819368 3.27286682 -6.27954067 4.96427697 -10 7 C-10.66 5.02 -11.32 3.04 -12 1 C-8.00439392 -1.83022097 -4.57262677 -0.76210446 0 0 Z " fill="#6E1127" transform="translate(1568,418)"/>
<path d="M0 0 C0.66 0.99 1.32 1.98 2 3 C0.02 5.31 -1.96 7.62 -4 10 C-3.34 10.66 -2.68 11.32 -2 12 C-3.4562672 12.36256858 -4.91511185 12.71479793 -6.375 13.0625 C-7.18710938 13.25972656 -7.99921875 13.45695312 -8.8359375 13.66015625 C-11 14 -11 14 -13 13 C-10.93678403 10.78395322 -9.16642729 9.09153501 -6.5 7.625 C-3.35969912 5.58380443 -1.90881367 3.18135612 0 0 Z " fill="#1C1C1C" transform="translate(1672,387)"/>
<path d="M0 0 C0.66 0.33 1.32 0.66 2 1 C1.40917986 2.48454806 0.80187345 3.96254351 0.1875 5.4375 C-0.14894531 6.26121094 -0.48539063 7.08492188 -0.83203125 7.93359375 C-2 10 -2 10 -5 11 C-5.99 9.35 -6.98 7.7 -8 6 C-5.36 4.02 -2.72 2.04 0 0 Z " fill="#F0F0F0" transform="translate(1615,453)"/>
<path d="M0 0 C0.66 0.99 1.32 1.98 2 3 C5.56769552 3.73606499 5.56769552 3.73606499 9 4 C9.33 4.99 9.66 5.98 10 7 C12.01508358 7.73323796 12.01508358 7.73323796 14 8 C12 9 12 9 10.02880859 8.47094727 C8.8505249 8.02319946 8.8505249 8.02319946 7.6484375 7.56640625 C6.79765625 7.24736328 5.946875 6.92832031 5.0703125 6.59960938 C4.18085937 6.25736328 3.29140625 5.91511719 2.375 5.5625 C1.4778125 5.22412109 0.580625 4.88574219 -0.34375 4.53710938 C-2.56516661 3.69817012 -4.78365271 2.8522225 -7 2 C-7 1.67 -7 1.34 -7 1 C-3.535 0.505 -3.535 0.505 0 0 Z " fill="#833C4D" transform="translate(1344,646)"/>
<path d="M0 0 C1.79093191 -0.08086147 3.58289628 -0.13912702 5.375 -0.1875 C6.87160156 -0.23970703 6.87160156 -0.23970703 8.3984375 -0.29296875 C9.25695313 -0.19628906 10.11546875 -0.09960938 11 0 C11.66 0.99 12.32 1.98 13 3 C12.67 3.66 12.34 4.32 12 5 C6.71201818 4.58525633 3.88309282 3.64775386 0 0 Z " fill="#1E1E1E" transform="translate(1077,475)"/>
<path d="M0 0 C1.670625 0.061875 1.670625 0.061875 3.375 0.125 C2.87668276 3.81254757 2.27432357 5.72990662 -0.625 8.125 C-2.275 6.145 -3.925 4.165 -5.625 2.125 C-3.625 0.125 -3.625 0.125 0 0 Z " fill="#1B1B1B" transform="translate(1935.625,367.875)"/>
<path d="M0 0 C3.63 0 7.26 0 11 0 C10.67 1.32 10.34 2.64 10 4 C10.99 4.33 11.98 4.66 13 5 C12.67 5.66 12.34 6.32 12 7 C7.78623759 5.26492136 3.80855781 3.53903854 0 1 C0 0.67 0 0.34 0 0 Z " fill="#ECECEC" transform="translate(1103,490)"/>
<path d="M0 0 C0.99 0 1.98 0 3 0 C3.02888146 3.31248187 3.04675799 6.62493167 3.0625 9.9375 C3.07087891 10.88302734 3.07925781 11.82855469 3.08789062 12.80273438 C3.09111328 13.70185547 3.09433594 14.60097656 3.09765625 15.52734375 C3.10289307 16.35999756 3.10812988 17.19265137 3.11352539 18.05053711 C3 20 3 20 2 21 C0.33382885 21.04063832 -1.33388095 21.042721 -3 21 C-3 20.34 -3 19.68 -3 19 C-1.68 18.67 -0.36 18.34 1 18 C1.33 13.05 1.66 8.1 2 3 C1.34 3 0.68 3 0 3 C0 2.01 0 1.02 0 0 Z " fill="#777777" transform="translate(3,856)"/>
<path d="M0 0 C4.44775994 2.63411025 8.53005564 5.0963126 12 9 C9.6875 9.6875 9.6875 9.6875 7 10 C5.1875 8.6875 5.1875 8.6875 4 7 C4 6.34 4 5.68 4 5 C3.34 4.505 2.68 4.01 2 3.5 C1.34 3.005 0.68 2.51 0 2 C0 1.34 0 0.68 0 0 Z " fill="#0B0B0B" transform="translate(1828,435)"/>
<path d="M0 0 C1.65 0.33 3.3 0.66 5 1 C5.33 3.64 5.66 6.28 6 9 C5.01 9 4.02 9 3 9 C3 8.34 3 7.68 3 7 C1.02 7.33 -0.96 7.66 -3 8 C-2.01 7.67 -1.02 7.34 0 7 C0.66179847 5.01954441 0.66179847 5.01954441 1 3 C1.33 2.67 1.66 2.34 2 2 C1.34 1.34 0.68 0.68 0 0 Z " fill="#620218" transform="translate(1386,654)"/>
<path d="M0 0 C-0.66 0 -1.32 0 -2 0 C-2 0.66 -2 1.32 -2 2 C-3.65 2 -5.3 2 -7 2 C-7.33 3.65 -7.66 5.3 -8 7 C-9.32 6.67 -10.64 6.34 -12 6 C-12 5.01 -12 4.02 -12 3 C-10.75823305 2.29773859 -9.50614401 1.61370891 -8.25 0.9375 C-7.20585938 0.36322266 -7.20585938 0.36322266 -6.140625 -0.22265625 C-3.63859372 -1.1312406 -2.4667645 -0.88336837 0 0 Z " fill="#680818" transform="translate(1368,643)"/>
<path d="M0 0 C5 1.66666667 10 3.33333333 15 5 C14.67 5.66 14.34 6.32 14 7 C12.41532272 6.71572583 10.8322943 6.42225182 9.25 6.125 C8.36828125 5.96257813 7.4865625 5.80015625 6.578125 5.6328125 C4.13052256 5.03203736 2.19400143 4.22002883 0 3 C0 2.01 0 1.02 0 0 Z " fill="#28282A" transform="translate(1151,631)"/>
<path d="M0 0 C8.44646925 6.15034169 8.44646925 6.15034169 12 10 C11.01 10 10.02 10 9 10 C9 9.34 9 8.68 9 8 C7.6078125 7.9071875 7.6078125 7.9071875 6.1875 7.8125 C3 7 3 7 1.125 4.5625 C0 2 0 2 0 0 Z " fill="#151515" transform="translate(1497,780)"/>
<path d="M0 0 C3.3 0 6.6 0 10 0 C9.67 0.99 9.34 1.98 9 3 C2.6 4.23076923 2.6 4.23076923 -0.4375 3.0625 C-0.953125 2.711875 -1.46875 2.36125 -2 2 C-1.34 2 -0.68 2 0 2 C0 1.34 0 0.68 0 0 Z " fill="#F4E6EC" transform="translate(1545,428)"/>
<path d="M0 0 C0.33 0.99 0.66 1.98 1 3 C0.34 3.433125 -0.32 3.86625 -1 4.3125 C-1.66 4.869375 -2.32 5.42625 -3 6 C-3 6.99 -3 7.98 -3 9 C-4.65 9 -6.3 9 -8 9 C-8 6.36 -8 3.72 -8 1 C-7.01 2.32 -6.02 3.64 -5 5 C-3.35 3.35 -1.7 1.7 0 0 Z " fill="#76757A" transform="translate(2971,867)"/>
<path d="M0 0 C1.65 0.33 3.3 0.66 5 1 C5 1.66 5 2.32 5 3 C3.46875 4.2890625 3.46875 4.2890625 1.5 5.625 C0.8503125 6.07101562 0.200625 6.51703125 -0.46875 6.9765625 C-0.9740625 7.31429687 -1.479375 7.65203125 -2 8 C-2.66 7.01 -3.32 6.02 -4 5 C-2.68 3.35 -1.36 1.7 0 0 Z " fill="#111111" transform="translate(1972,793)"/>
<path d="M0 0 C4.29 1.65 8.58 3.3 13 5 C13 5.33 13 5.66 13 6 C11.63875 5.9690625 11.63875 5.9690625 10.25 5.9375 C7.57327412 5.9889755 5.53011948 6.2215017 3 7 C3 5.68 3 4.36 3 3 C2.01 2.67 1.02 2.34 0 2 C0 1.34 0 0.68 0 0 Z " fill="#1C1C1C" transform="translate(1192,527)"/>
<path d="M0 0 C-0.33 1.32 -0.66 2.64 -1 4 C-3.97 3.01 -6.94 2.02 -10 1 C-7.68309104 -3.63381792 -3.88575585 -1.46795221 0 0 Z " fill="#171717" transform="translate(1127,514)"/>
<path d="M0 0 C0.33 0.99 0.66 1.98 1 3 C1.66 3.33 2.32 3.66 3 4 C-1.455 6.97 -1.455 6.97 -6 10 C-6.66 9.67 -7.32 9.34 -8 9 C-8 8.34 -8 7.68 -8 7 C-7.05125 6.773125 -6.1025 6.54625 -5.125 6.3125 C-1.80676612 5.30916286 -1.80676612 5.30916286 -0.625 2.375 C-0.41875 1.59125 -0.2125 0.8075 0 0 Z " fill="#731F33" transform="translate(1595,396)"/>
<path d="M0 0 C1.20628008 2.33214148 2.1654738 4.49642139 3 7 C2.34 7 1.68 7 1 7 C0.67 8.32 0.34 9.64 0 11 C-2 9 -2 9 -2.25 6.0625 C-2 3 -2 3 0 0 Z " fill="#632230" transform="translate(1891,326)"/>
<path d="M0 0 C2.31 0 4.62 0 7 0 C6.67 1.65 6.34 3.3 6 5 C3.625 5.1875 3.625 5.1875 1 5 C0.34 4.01 -0.32 3.02 -1 2 C-0.67 1.34 -0.34 0.68 0 0 Z " fill="#F7F6F6" transform="translate(1972,320)"/>
<path d="M0 0 C0.66 0 1.32 0 2 0 C2 2.31 2 4.62 2 7 C-0.31 7 -2.62 7 -5 7 C-1.125 1.125 -1.125 1.125 0 0 Z " fill="#DBDBDE" transform="translate(2970,870)"/>
<path d="M0 0 C5.63281599 -0.2396943 10.54538831 0.61470179 16 2 C15.01 2.33 14.02 2.66 13 3 C13 3.66 13 4.32 13 5 C11.68 5 10.36 5 9 5 C9 4.01 9 3.02 9 2 C6.03 1.67 3.06 1.34 0 1 C0 0.67 0 0.34 0 0 Z " fill="#7D3E54" transform="translate(1312,623)"/>
<path d="M0 0 C2.72426311 2.35277269 3.8141763 4.62496331 5 8 C1.25 9.125 1.25 9.125 -1 8 C-1.04241723 5.66705225 -1.04092937 3.33297433 -1 1 C-0.67 0.67 -0.34 0.34 0 0 Z " fill="#141414" transform="translate(1522,807)"/>
<path d="M0 0 C0.70125 -0.01675781 1.4025 -0.03351562 2.125 -0.05078125 C2.74375 0.06910156 3.3625 0.18898438 4 0.3125 C4.66 1.3025 5.32 2.2925 6 3.3125 C5.34 3.9725 4.68 4.6325 4 5.3125 C3.278125 5.003125 2.55625 4.69375 1.8125 4.375 C-0.80307309 3.38689461 -3.25118982 2.7837246 -6 2.3125 C-3.67471713 -0.01278287 -3.15334102 0.01738975 0 0 Z " fill="#722637" transform="translate(1375,657.6875)"/>
<path d="M0 0 C0.33 0.66 0.66 1.32 1 2 C0.06553465 4.03144641 -0.93224776 6.03533587 -2 8 C-2.33 7.34 -2.66 6.68 -3 6 C-3.66 6 -4.32 6 -5 6 C-5.33 6.99 -5.66 7.98 -6 9 C-6.99 8.67 -7.98 8.34 -9 8 C-6.14723863 5.06799526 -3.34920216 2.35684596 0 0 Z " fill="#202020" transform="translate(1569,468)"/>
<path d="M0 0 C-0.33 1.32 -0.66 2.64 -1 4 C-1.99 4 -2.98 4 -4 4 C-4 4.66 -4 5.32 -4 6 C-4.66 6 -5.32 6 -6 6 C-6 8.64 -6 11.28 -6 14 C-6.33 14 -6.66 14 -7 14 C-7 10.7 -7 7.4 -7 4 C-6.34 4 -5.68 4 -5 4 C-4.67 3.01 -4.34 2.02 -4 1 C-2 0 -2 0 0 0 Z " fill="#6D313E" transform="translate(1549,412)"/>
<path d="M0 0 C0.66 0.33 1.32 0.66 2 1 C0.12050295 4.57104439 -1.17053157 6.54744301 -5 8 C-5.33 7.01 -5.66 6.02 -6 5 C-4.02 3.35 -2.04 1.7 0 0 Z M-8 6 C-7.34 6.33 -6.68 6.66 -6 7 C-6.99 7 -7.98 7 -9 7 C-8.67 6.67 -8.34 6.34 -8 6 Z " fill="#1E1E1E" transform="translate(1649,407)"/>
<path d="M0 0 C0.33 0.66 0.66 1.32 1 2 C-1.88406243 5.40843742 -3.3708265 6.86591384 -7.8125 7.8125 C-9.3903125 7.9053125 -9.3903125 7.9053125 -11 8 C-8.00146037 4.65547502 -5.05376925 2.89175898 -1 1 C-0.67 0.67 -0.34 0.34 0 0 Z " fill="#722A3B" transform="translate(1561,403)"/>
<path d="M0 0 C0.66 0.66 1.32 1.32 2 2 C1.67 2.99 1.34 3.98 1 5 C-1.31 5.33 -3.62 5.66 -6 6 C-6 5.01 -6 4.02 -6 3 C-4.02 2.01 -2.04 1.02 0 0 Z " fill="#782332" transform="translate(1621,365)"/>
<path d="M0 0 C-3.2410371 2.49310546 -6.4850387 4.9059805 -10 7 C-10.99 6.67 -11.98 6.34 -13 6 C-12.34 5.67 -11.68 5.34 -11 5 C-11 4.34 -11 3.68 -11 3 C-9.68 3 -8.36 3 -7 3 C-7 2.34 -7 1.68 -7 1 C-4.53721199 -0.231394 -2.7204945 -0.07159196 0 0 Z " fill="#762138" transform="translate(1586,407)"/>
<path d="M0 0 C0 0.66 0 1.32 0 2 C4.95 2 9.9 2 15 2 C15 2.33 15 2.66 15 3 C7.41 3 -0.18 3 -8 3 C-8 2.67 -8 2.34 -8 2 C-2.25 0 -2.25 0 0 0 Z " fill="#7F071E" transform="translate(1904,334)"/>
<path d="M0 0 C0.66 0 1.32 0 2 0 C2.33 3.3 2.66 6.6 3 10 C3.66 10 4.32 10 5 10 C4.67 10.99 4.34 11.98 4 13 C1.78631706 10.78631706 0.13447079 9.06983375 -0.265625 5.88671875 C-0.25166986 3.92253213 -0.13286356 1.9597375 0 0 Z " fill="#FCF3F3" transform="translate(1114,434)"/>
<path d="M0 0 C0 3 0 3 -1 5 C-0.34 5.33 0.32 5.66 1 6 C-3.455 6.495 -3.455 6.495 -8 7 C-5.4837822 4.39391727 -2.94865641 2.10618315 0 0 Z " fill="#D2D2D2" transform="translate(1497,954)"/>
<path d="M0 0 C0 1.32 0 2.64 0 4 C-0.680625 4.12375 -1.36125 4.2475 -2.0625 4.375 C-5.4277412 5.09100877 -8.70013425 6.02945125 -12 7 C-12 6.34 -12 5.68 -12 5 C-10.37750059 4.16180842 -8.75191503 3.3295884 -7.125 2.5 C-6.22007812 2.0359375 -5.31515625 1.571875 -4.3828125 1.09375 C-2 0 -2 0 0 0 Z " fill="#212121" transform="translate(2071,944)"/>
<path d="M0 0 C2.97 0.33 5.94 0.66 9 1 C8.67 1.66 8.34 2.32 8 3 C5.05859375 3.4140625 5.05859375 3.4140625 1.4375 3.625 C0.23996094 3.69976563 -0.95757813 3.77453125 -2.19140625 3.8515625 C-3.11824219 3.90054688 -4.04507812 3.94953125 -5 4 C-2 2 -2 2 0 2 C0 1.34 0 0.68 0 0 Z " fill="#090909" transform="translate(1606,776)"/>
<path d="M0 0 C0.66 0.33 1.32 0.66 2 1 C0.75312408 1.96239452 -0.49764969 2.91974009 -1.75 3.875 C-2.44609375 4.40867187 -3.1421875 4.94234375 -3.859375 5.4921875 C-5.84722603 6.89238914 -7.79843386 7.97855265 -10 9 C-10 8.01 -10 7.02 -10 6 C-7.8828125 4.359375 -7.8828125 4.359375 -5.125 2.75 C-3.76761719 1.93789063 -3.76761719 1.93789063 -2.3828125 1.109375 C-1.20332031 0.56023437 -1.20332031 0.56023437 0 0 Z " fill="#F4DAE0" transform="translate(1587,406)"/>
<path d="M0 0 C3 1 3 1 5 4 C0.375 6.125 0.375 6.125 -3 5 C-2.01 3.35 -1.02 1.7 0 0 Z " fill="#151515" transform="translate(2001,778)"/>
<path d="M0 0 C2.64 1.65 5.28 3.3 8 5 C7.67 5.99 7.34 6.98 7 8 C3.64379729 6.61122646 1.92701272 5.08322035 0 2 C0 1.34 0 0.68 0 0 Z " fill="#111111" transform="translate(1847,448)"/>
<path d="M0 0 C0.99 0.33 1.98 0.66 3 1 C3 3.31 3 5.62 3 8 C2.01 8.495 2.01 8.495 1 9 C-1.09230769 4.56923077 -1.09230769 4.56923077 -0.625 1.6875 C-0.41875 1.130625 -0.2125 0.57375 0 0 Z " fill="#121212" transform="translate(1049,860)"/>
<path d="M0 0 C2.0625 0.4375 2.0625 0.4375 4 1 C4.33 2.65 4.66 4.3 5 6 C4.01 6 3.02 6 2 6 C0.3125 3.5 0.3125 3.5 -1 1 C-0.67 0.67 -0.34 0.34 0 0 Z " fill="#E7E7E7" transform="translate(1514,793)"/>
<path d="M0 0 C3.875 0.875 3.875 0.875 5 2 C7.01964199 2.07244053 9.04167124 2.08377188 11.0625 2.0625 C12.16722656 2.05347656 13.27195312 2.04445313 14.41015625 2.03515625 C15.26480469 2.02355469 16.11945313 2.01195312 17 2 C16.67 2.66 16.34 3.32 16 4 C14.08364783 4.05423638 12.16685075 4.09289963 10.25 4.125 C8.64898438 4.15980469 8.64898438 4.15980469 7.015625 4.1953125 C4.07529894 4.00487687 2.47638122 3.52670104 0 2 C0 1.34 0 0.68 0 0 Z " fill="#E5C5CC" transform="translate(1375,661)"/>
<path d="M0 0 C3.36720387 1.39332574 4.9859524 2.9789286 7 6 C3.00095031 6 1.19799578 4.27413033 -2 2 C-1.34 1.34 -0.68 0.68 0 0 Z " fill="#1A1A1A" transform="translate(1888,492)"/>
<path d="M0 0 C-0.33 0.99 -0.66 1.98 -1 3 C-1.66 3 -2.32 3 -3 3 C-3 3.66 -3 4.32 -3 5 C-4.98 5.99 -4.98 5.99 -7 7 C-7 5.68 -7 4.36 -7 3 C-2.92857143 0 -2.92857143 0 0 0 Z " fill="#F5E2E7" transform="translate(1611,392)"/>
<path d="M0 0 C1.32 0.66 2.64 1.32 4 2 C2.875 3.5625 2.875 3.5625 1 5 C-2.1875 4.6875 -2.1875 4.6875 -5 4 C-3.35 2.68 -1.7 1.36 0 0 Z " fill="#6F1629" transform="translate(1613,370)"/>
<path d="M0 0 C0.99 0.99 1.98 1.98 3 3 C1.48601545 6.78496138 0.9855604 7.0072198 -3 9 C-2.01 6.03 -1.02 3.06 0 0 Z " fill="#1D1D1D" transform="translate(938,947)"/>
<path d="M0 0 C1.98 0 3.96 0 6 0 C5.01 0.33 4.02 0.66 3 1 C3 1.99 3 2.98 3 4 C3.66 4.33 4.32 4.66 5 5 C3.35 5.33 1.7 5.66 0 6 C0 4.02 0 2.04 0 0 Z " fill="#C2C2C2" transform="translate(0,855)"/>
<path d="M0 0 C0.66 0 1.32 0 2 0 C2.6875 1.8125 2.6875 1.8125 3 4 C1.5625 5.625 1.5625 5.625 0 7 C0 7.66 0 8.32 0 9 C-0.99 9 -1.98 9 -3 9 C-2.01 6.03 -1.02 3.06 0 0 Z " fill="#303030" transform="translate(1021,745)"/>
<path d="M0 0 C5.75 0.75 5.75 0.75 8 3 C10.57061311 3.64767793 10.57061311 3.64767793 13 4 C13 4.33 13 4.66 13 5 C5.57142857 5.28571429 5.57142857 5.28571429 2 3 C2 2.34 2 1.68 2 1 C1.34 0.67 0.68 0.34 0 0 Z " fill="#333333" transform="translate(1201,649)"/>
<path d="M0 0 C-0.33 1.32 -0.66 2.64 -1 4 C-3.31 3.34 -5.62 2.68 -8 2 C-8 1.34 -8 0.68 -8 0 C-5.13822943 -1.43088528 -3.06624227 -0.59991697 0 0 Z " fill="#772A44" transform="translate(1320,637)"/>
<path d="M0 0 C0.99 0.33 1.98 0.66 3 1 C2 4 2 4 0.0625 5.25 C-0.618125 5.4975 -1.29875 5.745 -2 6 C-2.66 5.67 -3.32 5.34 -4 5 C-2.25 1.125 -2.25 1.125 0 0 Z " fill="#101010" transform="translate(1533,496)"/>
<path d="M0 0 C2.56616632 3.84924948 2.55097676 6.4349304 3 11 C2.34 11 1.68 11 1 11 C-0.59555725 7.50971852 -1.32049797 4.84597567 -1 1 C-0.67 0.67 -0.34 0.34 0 0 Z " fill="#672D3C" transform="translate(1117,432)"/>
<path d="M0 0 C0.33 0.99 0.66 1.98 1 3 C1.66 3 2.32 3 3 3 C2.67 4.65 2.34 6.3 2 8 C1.01 8.33 0.02 8.66 -1 9 C-1.09765625 2.84765625 -1.09765625 2.84765625 -1 1 C-0.67 0.67 -0.34 0.34 0 0 Z " fill="#FAEFF0" transform="translate(1243,431)"/>
<path d="M0 0 C6.93 0.495 6.93 0.495 14 1 C14 1.33 14 1.66 14 2 C6.08 2.495 6.08 2.495 -2 3 C-1.34 2.67 -0.68 2.34 0 2 C0 1.34 0 0.68 0 0 Z " fill="#64212E" transform="translate(1122,428)"/>
<path d="M0 0 C3.73639216 1.24546405 4.18756513 2.63404953 6 6 C2.75791433 5.64950425 1.38472296 5.43778819 -0.8125 2.9375 C-1.4003125 1.9784375 -1.4003125 1.9784375 -2 1 C-1.34 0.67 -0.68 0.34 0 0 Z " fill="#E8E8E8" transform="translate(1236,658)"/>
<path d="M0 0 C2.97 0.99 5.94 1.98 9 3 C8.67 3.66 8.34 4.32 8 5 C6.02 5 4.04 5 2 5 C1.34 3.35 0.68 1.7 0 0 Z " fill="#1E1E1E" transform="translate(1179,641)"/>
<path d="M0 0 C3.04311974 0.49347888 6.01697727 1.22662374 9 2 C9 2.66 9 3.32 9 4 C2.375 3.25 2.375 3.25 -1 1 C-0.67 0.67 -0.34 0.34 0 0 Z " fill="#2B2B2B" transform="translate(1127,638)"/>
<path d="M0 0 C0.763125 0.20625 1.52625 0.4125 2.3125 0.625 C2.3125 1.285 2.3125 1.945 2.3125 2.625 C2.9725 3.285 3.6325 3.945 4.3125 4.625 C0.59361761 4.11787967 -2.42204239 3.50891785 -5.6875 1.625 C-2.6875 -0.375 -2.6875 -0.375 0 0 Z " fill="#F3D8E0" transform="translate(1361.6875,635.375)"/>
<path d="M0 0 C0.33 0 0.66 0 1 0 C1.05447047 1.41623216 1.09300508 2.83308191 1.125 4.25 C1.14820313 5.03890625 1.17140625 5.8278125 1.1953125 6.640625 C0.9828378 9.20731941 0.28654105 10.7916067 -1 13 C-2.42857143 4.57142857 -2.42857143 4.57142857 0 0 Z " fill="#161616" transform="translate(1685,490)"/>
<path d="M0 0 C0.66 0.66 1.32 1.32 2 2 C0.33333333 3.66666667 -1.33333333 5.33333333 -3 7 C-3.99 6.01 -4.98 5.02 -6 4 C-4.02 2.68 -2.04 1.36 0 0 Z " fill="#F7E9EC" transform="translate(1597,400)"/>
<path d="M0 0 C1.32 1.32 2.64 2.64 4 4 C1 6 1 6 -1.1875 5.625 C-1.785625 5.41875 -2.38375 5.2125 -3 5 C-2.01 3.35 -1.02 1.7 0 0 Z " fill="#0D0D0D" transform="translate(1965,929)"/>
<path d="M0 0 C1.14926266 0.95421808 2.29430541 1.91352045 3.4375 2.875 C4.07558594 3.40867187 4.71367187 3.94234375 5.37109375 4.4921875 C7 6 7 6 8 8 C4.21479387 7.45925627 2.40822445 5.92427254 0 3 C0 2.01 0 1.02 0 0 Z " fill="#111111" transform="translate(2102,786)"/>
<path d="M0 0 C3.3 0 6.6 0 10 0 C10.33 1.32 10.66 2.64 11 4 C7.1936543 3.32829194 3.64793184 2.27253436 0 1 C0 0.67 0 0.34 0 0 Z " fill="#732D3F" transform="translate(1326,643)"/>
<path d="M0 0 C2.05078125 0.03255208 4.1015625 0.06510417 6.15234375 0.09765625 C6.15234375 0.75765625 6.15234375 1.41765625 6.15234375 2.09765625 C2.77734375 2.72265625 2.77734375 2.72265625 -0.84765625 3.09765625 C-1.50765625 2.43765625 -2.16765625 1.77765625 -2.84765625 1.09765625 C-1.84765625 0.09765625 -1.84765625 0.09765625 0 0 Z " fill="#7F213F" transform="translate(1322.84765625,639.90234375)"/>
<path d="M0 0 C4.455 0.99 4.455 0.99 9 2 C8.34 2.66 7.68 3.32 7 4 C3.375 3.625 3.375 3.625 0 3 C0 2.01 0 1.02 0 0 Z " fill="#121212" transform="translate(1107,616)"/>
<path d="M0 0 C2.97 0.99 5.94 1.98 9 3 C8.34 3.66 7.68 4.32 7 5 C6.236875 4.67 5.47375 4.34 4.6875 4 C2.00930865 2.82563314 2.00930865 2.82563314 -1 3 C-0.67 2.01 -0.34 1.02 0 0 Z " fill="#171717" transform="translate(1220,539)"/>
<path d="M0 0 C4.75 0.875 4.75 0.875 7 2 C7 2.66 7 3.32 7 4 C5 5.625 5 5.625 3 7 C3 6.34 3 5.68 3 5 C2.34 4.67 1.68 4.34 1 4 C1.66 3.67 2.32 3.34 3 3 C2.01 2.01 1.02 1.02 0 0 Z " fill="#222222" transform="translate(1176,521)"/>
<path d="M0 0 C0.8971875 0.309375 0.8971875 0.309375 1.8125 0.625 C1.214375 0.893125 0.61625 1.16125 0 1.4375 C-2.23077908 2.5143979 -2.23077908 2.5143979 -3.8125 4.25 C-4.26625 4.70375 -4.72 5.1575 -5.1875 5.625 C-5.8475 5.625 -6.5075 5.625 -7.1875 5.625 C-5.69046729 2.17030914 -4.27938051 -0.73360809 0 0 Z " fill="#2F2F2F" transform="translate(1073.1875,477.375)"/>
<path d="M0 0 C0.33 0.66 0.66 1.32 1 2 C0.06553465 4.03144641 -0.93224776 6.03533587 -2 8 C-3.32 7.01 -4.64 6.02 -6 5 C-4.02 3.35 -2.04 1.7 0 0 Z " fill="#1C1C1C" transform="translate(1585,456)"/>
<path d="M0 0 C3.3 0 6.6 0 10 0 C6.71536341 2.18975773 3.79303725 2.99806563 0 4 C0 2.68 0 1.36 0 0 Z " fill="#5D0512" transform="translate(1892,326)"/>
<path d="M0 0 C0 3.38023517 -0.87455622 5.83468937 -2 9 C-3.32 8.01 -4.64 7.02 -6 6 C-4.02 4.02 -2.04 2.04 0 0 Z " fill="#1F1F1F" transform="translate(1353,788)"/>
<path d="M0 0 C1.32 0.66 2.64 1.32 4 2 C3.67 2.99 3.34 3.98 3 5 C1.02 4.34 -0.96 3.68 -3 3 C-2.01 2.01 -1.02 1.02 0 0 Z " fill="#EFEFEF" transform="translate(2067,760)"/>
<path d="M0 0 C0.99 0.33 1.98 0.66 3 1 C0.53846154 5.8 0.53846154 5.8 -2.1875 6.8125 C-2.785625 6.874375 -3.38375 6.93625 -4 7 C-4.33 5.68 -4.66 4.36 -5 3 C-3.68 3.33 -2.36 3.66 -1 4 C-0.67 2.68 -0.34 1.36 0 0 Z " fill="#6D0820" transform="translate(1386,655)"/>
<path d="M0 0 C3.3 0.99 6.6 1.98 10 3 C10 3.33 10 3.66 10 4 C6.7 3.67 3.4 3.34 0 3 C0 2.01 0 1.02 0 0 Z " fill="#843142" transform="translate(1358,638)"/>
<path d="M0 0 C3.3 0.33 6.6 0.66 10 1 C6.39338934 2.80330533 3.91606575 3.46599103 0 4 C0 2.68 0 1.36 0 0 Z " fill="#6D1A36" transform="translate(1311,624)"/>
<path d="M0 0 C0.66 0 1.32 0 2 0 C1.67 0.99 1.34 1.98 1 3 C1.33 3.33 1.66 3.66 2 4 C1.01 4.495 1.01 4.495 0 5 C0 5.66 0 6.32 0 7 C-0.99 7.33 -1.98 7.66 -3 8 C-2.45276317 4.62537285 -1.9451 2.91765 0 0 Z " fill="#161616" transform="translate(1518,506)"/>
<path d="M0 0 C2.475 0.495 2.475 0.495 5 1 C5.33 1.99 5.66 2.98 6 4 C5.34 4.66 4.68 5.32 4 6 C3.67 5.34 3.34 4.68 3 4 C2.01 3.67 1.02 3.34 0 3 C0 2.01 0 1.02 0 0 Z " fill="#0C0C0C" transform="translate(1387,945)"/>
<path d="M0 0 C0.66 0.66 1.32 1.32 2 2 C1.01 2.33 0.02 2.66 -1 3 C-2.70855022 6.00007271 -2.70855022 6.00007271 -4 9 C-4.66 8.67 -5.32 8.34 -6 8 C-2.25 1.125 -2.25 1.125 0 0 Z " fill="#191919" transform="translate(1933,814)"/>
<path d="M0 0 C0.33 0.99 0.66 1.98 1 3 C-2.3 3 -5.6 3 -9 3 C-6.31795079 0.31795079 -3.73391546 0 0 0 Z " fill="#5C1527" transform="translate(1389,661)"/>
<path d="M0 0 C5.445 1.485 5.445 1.485 11 3 C11 3.33 11 3.66 11 4 C3.57142857 4.14285714 3.57142857 4.14285714 0 3 C0 2.01 0 1.02 0 0 Z " fill="#95545F" transform="translate(1338,630)"/>
<path d="M0 0 C2.64 0 5.28 0 8 0 C8.33 1.32 8.66 2.64 9 4 C6.03 3.01 3.06 2.02 0 1 C0 0.67 0 0.34 0 0 Z " fill="#F6DDE4" transform="translate(1328,626)"/>
<path d="M0 0 C2.31 0.33 4.62 0.66 7 1 C7 1.66 7 2.32 7 3 C8.32 3.33 9.64 3.66 11 4 C10.01 4.495 10.01 4.495 9 5 C6.8359375 4.22265625 6.8359375 4.22265625 4.375 3.0625 C3.55773438 2.68222656 2.74046875 2.30195312 1.8984375 1.91015625 C1.27195312 1.60980469 0.64546875 1.30945313 0 1 C0 0.67 0 0.34 0 0 Z " fill="#2F2F2F" transform="translate(1301,589)"/>
<path d="M0 0 C2.1875 0.3125 2.1875 0.3125 4 1 C1.03 3.475 1.03 3.475 -2 6 C-2.33 5.01 -2.66 4.02 -3 3 C-1.75 1.4375 -1.75 1.4375 0 0 Z " fill="#131313" transform="translate(1658,417)"/>
<path d="M0 0 C0.66 0.99 1.32 1.98 2 3 C-0.31 5.64 -2.62 8.28 -5 11 C-5.33 10.01 -5.66 9.02 -6 8 C-4.4045651 5.94272868 -2.73473712 3.94125344 -1 2 C-0.67 1.34 -0.34 0.68 0 0 Z " fill="#303030" transform="translate(1672,387)"/>
<path d="M0 0 C0.33 0 0.66 0 1 0 C1.08131463 1.43655854 1.13933559 2.8744483 1.1875 4.3125 C1.23970703 5.51326172 1.23970703 5.51326172 1.29296875 6.73828125 C0.93801608 9.47851584 0.10633718 10.29171079 -2 12 C-2 10.02 -2 8.04 -2 6 C-1.67 6 -1.34 6 -1 6 C-0.67 4.02 -0.34 2.04 0 0 Z " fill="#763747" transform="translate(1642,361)"/>
<path d="M0 0 C2.88437779 1.29299694 4.87219421 2.65941363 7 5 C6.01 5.495 6.01 5.495 5 6 C3.02 4.68 1.04 3.36 -1 2 C-0.67 1.34 -0.34 0.68 0 0 Z " fill="#0E0E0E" transform="translate(2090,777)"/>
<path d="M0 0 C2 1 4 2 6 3 C5.67 3.99 5.34 4.98 5 6 C3.02 4.68 1.04 3.36 -1 2 C-0.67 1.34 -0.34 0.68 0 0 Z " fill="#1B1B1B" transform="translate(1873,482)"/>
<path d="M0 0 C1.65 0 3.3 0 5 0 C3.35 1.65 1.7 3.3 0 5 C-0.99 4.34 -1.98 3.68 -3 3 C-2.01 2.67 -1.02 2.34 0 2 C0 1.34 0 0.68 0 0 Z " fill="#1A1A1A" transform="translate(1626,441)"/>
<path d="M0 0 C0.66 0.99 1.32 1.98 2 3 C-0.97 3.66 -3.94 4.32 -7 5 C-4.49183541 2.49183541 -3.09162264 1.38589981 0 0 Z " fill="#75253A" transform="translate(1601,378)"/>
<path d="M0 0 C0.66 0.33 1.32 0.66 2 1 C1.67 1.33 1.34 1.66 1 2 C1.66 2.66 2.32 3.32 3 4 C0.36 4.33 -2.28 4.66 -5 5 C-3.35 3.35 -1.7 1.7 0 0 Z " fill="#DCDCDC" transform="translate(2092,956)"/>
<path d="M0 0 C1.65 1.65 3.3 3.3 5 5 C4.34 5.66 3.68 6.32 3 7 C1.68 5.68 0.36 4.36 -1 3 C-0.67 2.01 -0.34 1.02 0 0 Z " fill="#1F1F1F" transform="translate(1509,790)"/>
<path d="M0 0 C0.66 0.66 1.32 1.32 2 2 C1.54545455 7.45454545 1.54545455 7.45454545 -1 10 C-0.67 6.7 -0.34 3.4 0 0 Z " fill="#7F3E53" transform="translate(1393,652)"/>
<path d="M0 0 C1.32 0 2.64 0 4 0 C4 2.31 4 4.62 4 7 C3.67 5.68 3.34 4.36 3 3 C1.68 2.67 0.36 2.34 -1 2 C-0.67 1.34 -0.34 0.68 0 0 Z " fill="#373737" transform="translate(1683,603)"/>
<path d="M0 0 C2.64 1.65 5.28 3.3 8 5 C7.34 5.66 6.68 6.32 6 7 C3.95880212 5.38405168 1.95927063 3.7143618 0 2 C0 1.34 0 0.68 0 0 Z " fill="#232323" transform="translate(1828,435)"/>
<path d="M0 0 C3.465 1.98 3.465 1.98 7 4 C7 4.66 7 5.32 7 6 C3.75728494 5.4409112 2.06942576 4.5867822 0 2 C0 1.34 0 0.68 0 0 Z " fill="#1B1B1B" transform="translate(1782,404)"/>
<path d="M0 0 C0.33 1.32 0.66 2.64 1 4 C-3.75 5.125 -3.75 5.125 -6 4 C-4.02 2.68 -2.04 1.36 0 0 Z " fill="#7B2842" transform="translate(1573,395)"/>
</svg>
